<svg version="1.1" xmlns="http://www.w3.org/2000/svg" xmlns:xlink="http://www.w3.org/1999/xlink" stroke-linecap="round" stroke-linejoin="round" stroke-width="0" fill-rule="evenodd" clip-rule="evenodd" id="x_cS3EEYis50Jc8lckW2_bottom" viewBox="33020 28067 73660 63373" width="73.66mm" height="63.373mm" class="w-100 h-100"><defs><style>.x_cS3EEYis50Jc8lckW2_fr4 {color: #666666;}
.x_cS3EEYis50Jc8lckW2_cu {color: #cccccc;}
.x_cS3EEYis50Jc8lckW2_cf {color: #cc9933;}
.x_cS3EEYis50Jc8lckW2_sm {color: #004200; opacity: 0.75;}
.x_cS3EEYis50Jc8lckW2_ss {color: #ffffff;}
.x_cS3EEYis50Jc8lckW2_sp {color: #999999;}
.x_cS3EEYis50Jc8lckW2_out {color: #000000;}</style><circle cx="0" cy="0" r="1300.8" id="e-MIKU5EF6zr3xlt_LiW_pad-10"/><g id="e-MIKU5EF6zr3xlt_LiW_pad-11"><circle cx="1150" cy="1150" r="50"/><circle cx="1150" cy="-1150" r="50"/><circle cx="-1150" cy="-1150" r="50"/><circle cx="-1150" cy="1150" r="50"/><polygon points="1200,1150 1200,-1150 1100,-1150 1100,1150"/><polygon points="1150,-1200 -1150,-1200 -1150,-1100 1150,-1100"/><polygon points="-1100,-1150 -1100,1150 -1200,1150 -1200,-1150"/><polygon points="-1150,1100 1150,1100 1150,1200 -1150,1200"/><polygon points="1150,1150 1150,-1150 -1150,-1150 -1150,1150"/></g><circle cx="0" cy="0" r="1200" id="e-MIKU5EF6zr3xlt_LiW_pad-12"/><circle cx="0" cy="0" r="850.8" id="e-MIKU5EF6zr3xlt_LiW_pad-13"/><g id="e-MIKU5EF6zr3xlt_LiW_pad-14"><circle cx="800" cy="800" r="50.8"/><circle cx="800" cy="-800" r="50.8"/><circle cx="-800" cy="-800" r="50.8"/><circle cx="-800" cy="800" r="50.8"/><polygon points="850.8,800 850.8,-800 749.2,-800 749.2,800"/><polygon points="800,-850.8 -800,-850.8 -800,-749.2 800,-749.2"/><polygon points="-749.2,-800 -749.2,800 -850.8,800 -850.8,-800"/><polygon points="-800,749.2 800,749.2 800,850.8 -800,850.8"/><polygon points="800,800 800,-800 -800,-800 -800,800"/></g><circle cx="0" cy="0" r="1250" id="fSwARq_OoAfhqQtiVQmg_pad-11"/><rect x="-1150" y="-1150" width="2300" height="2300" id="fSwARq_OoAfhqQtiVQmg_pad-12"/><circle cx="0" cy="0" r="1150" id="fSwARq_OoAfhqQtiVQmg_pad-13"/><circle cx="0" cy="0" r="800" id="fSwARq_OoAfhqQtiVQmg_pad-14"/><rect x="-800" y="-800" width="1600" height="1600" id="fSwARq_OoAfhqQtiVQmg_pad-15"/><circle cx="0" cy="0" r="310" id="fSwARq_OoAfhqQtiVQmg_pad-16"/><circle cx="0" cy="0" r="155" id="isw5BwHnlM3rAMoXoEB1_pad-1"/><circle cx="0" cy="0" r="525" id="isw5BwHnlM3rAMoXoEB1_pad-2"/><circle cx="0" cy="0" r="650.5" id="isw5BwHnlM3rAMoXoEB1_pad-3"/><circle cx="0" cy="0" r="800" id="isw5BwHnlM3rAMoXoEB1_pad-4"/><circle cx="0" cy="0" r="1600" id="spCvDqJlmyudYSyu4Vtb_pad-1"/><circle cx="0" cy="0" r="155" id="yPmdAR-WPUrKBMueeP7U_pad-1"/><g id="x_cS3EEYis50Jc8lckW2_bottom_soldermask"><use xlink:href="#e-MIKU5EF6zr3xlt_LiW_pad-10" x="43888.65" y="69295.01"/><use xlink:href="#e-MIKU5EF6zr3xlt_LiW_pad-10" x="43888.65" y="74295"/><use xlink:href="#e-MIKU5EF6zr3xlt_LiW_pad-10" x="43888.65" y="79294.98"/><use xlink:href="#e-MIKU5EF6zr3xlt_LiW_pad-11" x="43888.1" y="58387.08"/><use xlink:href="#e-MIKU5EF6zr3xlt_LiW_pad-12" x="43888.15" y="53386.98"/><use xlink:href="#e-MIKU5EF6zr3xlt_LiW_pad-12" x="43888.15" y="48387"/><use xlink:href="#e-MIKU5EF6zr3xlt_LiW_pad-12" x="43888.15" y="43387.01"/><use xlink:href="#e-MIKU5EF6zr3xlt_LiW_pad-12" x="43888.15" y="38387.02"/><use xlink:href="#e-MIKU5EF6zr3xlt_LiW_pad-13" x="69596" y="34925"/><use xlink:href="#e-MIKU5EF6zr3xlt_LiW_pad-13" x="69596" y="37465"/><use xlink:href="#e-MIKU5EF6zr3xlt_LiW_pad-13" x="69596" y="40005"/><use xlink:href="#e-MIKU5EF6zr3xlt_LiW_pad-13" x="69596" y="42545"/><use xlink:href="#e-MIKU5EF6zr3xlt_LiW_pad-13" x="69596" y="45085"/><use xlink:href="#e-MIKU5EF6zr3xlt_LiW_pad-13" x="69596" y="47625"/><use xlink:href="#e-MIKU5EF6zr3xlt_LiW_pad-13" x="69596" y="50165"/><use xlink:href="#e-MIKU5EF6zr3xlt_LiW_pad-13" x="69596" y="52705"/><use xlink:href="#e-MIKU5EF6zr3xlt_LiW_pad-13" x="69596" y="55245"/><use xlink:href="#e-MIKU5EF6zr3xlt_LiW_pad-13" x="69596" y="57785"/><use xlink:href="#e-MIKU5EF6zr3xlt_LiW_pad-13" x="69596" y="60325"/><use xlink:href="#e-MIKU5EF6zr3xlt_LiW_pad-13" x="69596" y="62865"/><use xlink:href="#e-MIKU5EF6zr3xlt_LiW_pad-13" x="69596" y="65405"/><use xlink:href="#e-MIKU5EF6zr3xlt_LiW_pad-13" x="69596" y="67945"/><use xlink:href="#e-MIKU5EF6zr3xlt_LiW_pad-13" x="69596" y="70485"/><use xlink:href="#e-MIKU5EF6zr3xlt_LiW_pad-13" x="69596" y="73025"/><use xlink:href="#e-MIKU5EF6zr3xlt_LiW_pad-13" x="69596" y="75565"/><use xlink:href="#e-MIKU5EF6zr3xlt_LiW_pad-13" x="69596" y="78105"/><use xlink:href="#e-MIKU5EF6zr3xlt_LiW_pad-14" x="69596" y="80645"/><use xlink:href="#e-MIKU5EF6zr3xlt_LiW_pad-13" x="94996" y="34925"/><use xlink:href="#e-MIKU5EF6zr3xlt_LiW_pad-13" x="94996" y="37465"/><use xlink:href="#e-MIKU5EF6zr3xlt_LiW_pad-13" x="94996" y="40005"/><use xlink:href="#e-MIKU5EF6zr3xlt_LiW_pad-13" x="94996" y="42545"/><use xlink:href="#e-MIKU5EF6zr3xlt_LiW_pad-13" x="94996" y="45085"/><use xlink:href="#e-MIKU5EF6zr3xlt_LiW_pad-13" x="94996" y="47625"/><use xlink:href="#e-MIKU5EF6zr3xlt_LiW_pad-13" x="94996" y="50165"/><use xlink:href="#e-MIKU5EF6zr3xlt_LiW_pad-13" x="94996" y="52705"/><use xlink:href="#e-MIKU5EF6zr3xlt_LiW_pad-13" x="94996" y="55245"/><use xlink:href="#e-MIKU5EF6zr3xlt_LiW_pad-13" x="94996" y="57785"/><use xlink:href="#e-MIKU5EF6zr3xlt_LiW_pad-13" x="94996" y="60325"/><use xlink:href="#e-MIKU5EF6zr3xlt_LiW_pad-13" x="94996" y="62865"/><use xlink:href="#e-MIKU5EF6zr3xlt_LiW_pad-13" x="94996" y="65405"/><use xlink:href="#e-MIKU5EF6zr3xlt_LiW_pad-13" x="94996" y="67945"/><use xlink:href="#e-MIKU5EF6zr3xlt_LiW_pad-13" x="94996" y="70485"/><use xlink:href="#e-MIKU5EF6zr3xlt_LiW_pad-13" x="94996" y="73025"/><use xlink:href="#e-MIKU5EF6zr3xlt_LiW_pad-13" x="94996" y="75565"/><use xlink:href="#e-MIKU5EF6zr3xlt_LiW_pad-13" x="94996" y="78105"/><use xlink:href="#e-MIKU5EF6zr3xlt_LiW_pad-14" x="94996" y="80645"/></g><g id="x_cS3EEYis50Jc8lckW2_bottom_copper"><path d="M 66167 65405 66167 48387 44069 48387 M 63670.15 70485 63627 70434.2 63627 66040 60325 62738 51562 62738 51562 53340 44069 53386.98" fill="none" stroke-width="254"/><use xlink:href="#fSwARq_OoAfhqQtiVQmg_pad-11" x="43888.65" y="69295.01"/><use xlink:href="#fSwARq_OoAfhqQtiVQmg_pad-11" x="43888.65" y="74295"/><use xlink:href="#fSwARq_OoAfhqQtiVQmg_pad-11" x="43888.65" y="79294.98"/><use xlink:href="#fSwARq_OoAfhqQtiVQmg_pad-12" x="43888.15" y="58386.97"/><use xlink:href="#fSwARq_OoAfhqQtiVQmg_pad-13" x="43888.15" y="53386.98"/><use xlink:href="#fSwARq_OoAfhqQtiVQmg_pad-13" x="43888.15" y="48387"/><use xlink:href="#fSwARq_OoAfhqQtiVQmg_pad-13" x="43888.15" y="43387.01"/><use xlink:href="#fSwARq_OoAfhqQtiVQmg_pad-13" x="43888.15" y="38387.02"/><use xlink:href="#fSwARq_OoAfhqQtiVQmg_pad-14" x="69596" y="34925"/><use xlink:href="#fSwARq_OoAfhqQtiVQmg_pad-14" x="69596" y="37465"/><use xlink:href="#fSwARq_OoAfhqQtiVQmg_pad-14" x="69596" y="40005"/><use xlink:href="#fSwARq_OoAfhqQtiVQmg_pad-14" x="69596" y="42545"/><use xlink:href="#fSwARq_OoAfhqQtiVQmg_pad-14" x="69596" y="45085"/><use xlink:href="#fSwARq_OoAfhqQtiVQmg_pad-14" x="69596" y="47625"/><use xlink:href="#fSwARq_OoAfhqQtiVQmg_pad-14" x="69596" y="50165"/><use xlink:href="#fSwARq_OoAfhqQtiVQmg_pad-14" x="69596" y="52705"/><use xlink:href="#fSwARq_OoAfhqQtiVQmg_pad-14" x="69596" y="55245"/><use xlink:href="#fSwARq_OoAfhqQtiVQmg_pad-14" x="69596" y="57785"/><use xlink:href="#fSwARq_OoAfhqQtiVQmg_pad-14" x="69596" y="60325"/><use xlink:href="#fSwARq_OoAfhqQtiVQmg_pad-14" x="69596" y="62865"/><use xlink:href="#fSwARq_OoAfhqQtiVQmg_pad-14" x="69596" y="65405"/><use xlink:href="#fSwARq_OoAfhqQtiVQmg_pad-14" x="69596" y="67945"/><use xlink:href="#fSwARq_OoAfhqQtiVQmg_pad-14" x="69596" y="70485"/><use xlink:href="#fSwARq_OoAfhqQtiVQmg_pad-14" x="69596" y="73025"/><use xlink:href="#fSwARq_OoAfhqQtiVQmg_pad-14" x="69596" y="75565"/><use xlink:href="#fSwARq_OoAfhqQtiVQmg_pad-14" x="69596" y="78105"/><use xlink:href="#fSwARq_OoAfhqQtiVQmg_pad-15" x="69596" y="80645"/><use xlink:href="#fSwARq_OoAfhqQtiVQmg_pad-14" x="94996" y="34925"/><use xlink:href="#fSwARq_OoAfhqQtiVQmg_pad-14" x="94996" y="37465"/><use xlink:href="#fSwARq_OoAfhqQtiVQmg_pad-14" x="94996" y="40005"/><use xlink:href="#fSwARq_OoAfhqQtiVQmg_pad-14" x="94996" y="42545"/><use xlink:href="#fSwARq_OoAfhqQtiVQmg_pad-14" x="94996" y="45085"/><use xlink:href="#fSwARq_OoAfhqQtiVQmg_pad-14" x="94996" y="47625"/><use xlink:href="#fSwARq_OoAfhqQtiVQmg_pad-14" x="94996" y="50165"/><use xlink:href="#fSwARq_OoAfhqQtiVQmg_pad-14" x="94996" y="52705"/><use xlink:href="#fSwARq_OoAfhqQtiVQmg_pad-14" x="94996" y="55245"/><use xlink:href="#fSwARq_OoAfhqQtiVQmg_pad-14" x="94996" y="57785"/><use xlink:href="#fSwARq_OoAfhqQtiVQmg_pad-14" x="94996" y="60325"/><use xlink:href="#fSwARq_OoAfhqQtiVQmg_pad-14" x="94996" y="62865"/><use xlink:href="#fSwARq_OoAfhqQtiVQmg_pad-14" x="94996" y="65405"/><use xlink:href="#fSwARq_OoAfhqQtiVQmg_pad-14" x="94996" y="67945"/><use xlink:href="#fSwARq_OoAfhqQtiVQmg_pad-14" x="94996" y="70485"/><use xlink:href="#fSwARq_OoAfhqQtiVQmg_pad-14" x="94996" y="73025"/><use xlink:href="#fSwARq_OoAfhqQtiVQmg_pad-14" x="94996" y="75565"/><use xlink:href="#fSwARq_OoAfhqQtiVQmg_pad-14" x="94996" y="78105"/><use xlink:href="#fSwARq_OoAfhqQtiVQmg_pad-15" x="94996" y="80645"/><use xlink:href="#fSwARq_OoAfhqQtiVQmg_pad-16" x="63671.19" y="70485"/><use xlink:href="#fSwARq_OoAfhqQtiVQmg_pad-16" x="66167" y="65405"/></g><g id="x_cS3EEYis50Jc8lckW2_bottom_drill1"><use xlink:href="#isw5BwHnlM3rAMoXoEB1_pad-1" x="63671" y="70485"/><use xlink:href="#isw5BwHnlM3rAMoXoEB1_pad-1" x="66167" y="65405"/><use xlink:href="#isw5BwHnlM3rAMoXoEB1_pad-2" x="69596" y="34925"/><use xlink:href="#isw5BwHnlM3rAMoXoEB1_pad-2" x="69596" y="37465"/><use xlink:href="#isw5BwHnlM3rAMoXoEB1_pad-2" x="69596" y="40005"/><use xlink:href="#isw5BwHnlM3rAMoXoEB1_pad-2" x="69596" y="42545"/><use xlink:href="#isw5BwHnlM3rAMoXoEB1_pad-2" x="69596" y="45085"/><use xlink:href="#isw5BwHnlM3rAMoXoEB1_pad-2" x="69596" y="47625"/><use xlink:href="#isw5BwHnlM3rAMoXoEB1_pad-2" x="69596" y="50165"/><use xlink:href="#isw5BwHnlM3rAMoXoEB1_pad-2" x="69596" y="52705"/><use xlink:href="#isw5BwHnlM3rAMoXoEB1_pad-2" x="69596" y="55245"/><use xlink:href="#isw5BwHnlM3rAMoXoEB1_pad-2" x="69596" y="57785"/><use xlink:href="#isw5BwHnlM3rAMoXoEB1_pad-2" x="69596" y="60325"/><use xlink:href="#isw5BwHnlM3rAMoXoEB1_pad-2" x="69596" y="62865"/><use xlink:href="#isw5BwHnlM3rAMoXoEB1_pad-2" x="69596" y="65405"/><use xlink:href="#isw5BwHnlM3rAMoXoEB1_pad-2" x="69596" y="67945"/><use xlink:href="#isw5BwHnlM3rAMoXoEB1_pad-2" x="69596" y="70485"/><use xlink:href="#isw5BwHnlM3rAMoXoEB1_pad-2" x="69596" y="73025"/><use xlink:href="#isw5BwHnlM3rAMoXoEB1_pad-2" x="69596" y="75565"/><use xlink:href="#isw5BwHnlM3rAMoXoEB1_pad-2" x="69596" y="78105"/><use xlink:href="#isw5BwHnlM3rAMoXoEB1_pad-2" x="69596" y="80645"/><use xlink:href="#isw5BwHnlM3rAMoXoEB1_pad-2" x="94996" y="34925"/><use xlink:href="#isw5BwHnlM3rAMoXoEB1_pad-2" x="94996" y="37465"/><use xlink:href="#isw5BwHnlM3rAMoXoEB1_pad-2" x="94996" y="40005"/><use xlink:href="#isw5BwHnlM3rAMoXoEB1_pad-2" x="94996" y="42545"/><use xlink:href="#isw5BwHnlM3rAMoXoEB1_pad-2" x="94996" y="45085"/><use xlink:href="#isw5BwHnlM3rAMoXoEB1_pad-2" x="94996" y="47625"/><use xlink:href="#isw5BwHnlM3rAMoXoEB1_pad-2" x="94996" y="50165"/><use xlink:href="#isw5BwHnlM3rAMoXoEB1_pad-2" x="94996" y="52705"/><use xlink:href="#isw5BwHnlM3rAMoXoEB1_pad-2" x="94996" y="55245"/><use xlink:href="#isw5BwHnlM3rAMoXoEB1_pad-2" x="94996" y="57785"/><use xlink:href="#isw5BwHnlM3rAMoXoEB1_pad-2" x="94996" y="60325"/><use xlink:href="#isw5BwHnlM3rAMoXoEB1_pad-2" x="94996" y="62865"/><use xlink:href="#isw5BwHnlM3rAMoXoEB1_pad-2" x="94996" y="65405"/><use xlink:href="#isw5BwHnlM3rAMoXoEB1_pad-2" x="94996" y="67945"/><use xlink:href="#isw5BwHnlM3rAMoXoEB1_pad-2" x="94996" y="70485"/><use xlink:href="#isw5BwHnlM3rAMoXoEB1_pad-2" x="94996" y="73025"/><use xlink:href="#isw5BwHnlM3rAMoXoEB1_pad-2" x="94996" y="75565"/><use xlink:href="#isw5BwHnlM3rAMoXoEB1_pad-2" x="94996" y="78105"/><use xlink:href="#isw5BwHnlM3rAMoXoEB1_pad-2" x="94996" y="80645"/><use xlink:href="#isw5BwHnlM3rAMoXoEB1_pad-3" x="43888" y="58387"/><use xlink:href="#isw5BwHnlM3rAMoXoEB1_pad-3" x="43888" y="53387"/><use xlink:href="#isw5BwHnlM3rAMoXoEB1_pad-3" x="43888" y="48387"/><use xlink:href="#isw5BwHnlM3rAMoXoEB1_pad-3" x="43888" y="43387"/><use xlink:href="#isw5BwHnlM3rAMoXoEB1_pad-3" x="43888" y="38387"/><use xlink:href="#isw5BwHnlM3rAMoXoEB1_pad-4" x="43889" y="69295"/><use xlink:href="#isw5BwHnlM3rAMoXoEB1_pad-4" x="43889" y="74295"/><use xlink:href="#isw5BwHnlM3rAMoXoEB1_pad-4" x="43889" y="79295"/></g><g id="x_cS3EEYis50Jc8lckW2_bottom_drill2"><use xlink:href="#spCvDqJlmyudYSyu4Vtb_pad-1" x="103000" y="87000"/><use xlink:href="#spCvDqJlmyudYSyu4Vtb_pad-1" x="103000" y="32000"/><use xlink:href="#spCvDqJlmyudYSyu4Vtb_pad-1" x="37000" y="87000"/><use xlink:href="#spCvDqJlmyudYSyu4Vtb_pad-1" x="37000" y="32000"/></g><g id="x_cS3EEYis50Jc8lckW2_bottom_drill3"><use xlink:href="#yPmdAR-WPUrKBMueeP7U_pad-1" x="63671" y="70485"/><use xlink:href="#yPmdAR-WPUrKBMueeP7U_pad-1" x="66167" y="65405"/></g><clipPath id="x_cS3EEYis50Jc8lckW2_bottom_outline"><path d="M 33020 91440 33020 28067 106680 28067 106680 91440 33020 91440" fill="none" stroke-width="254"/></clipPath><mask id="x_cS3EEYis50Jc8lckW2_bottom_mech-mask"><g fill="#000" stroke="#000"><rect x="33020" y="28067" width="73660" height="63373" fill="#fff"/><use xlink:href="#x_cS3EEYis50Jc8lckW2_bottom_drill1"/><use xlink:href="#x_cS3EEYis50Jc8lckW2_bottom_drill2"/><use xlink:href="#x_cS3EEYis50Jc8lckW2_bottom_drill3"/></g></mask><mask id="x_cS3EEYis50Jc8lckW2_bottom_cf-mask"><g fill="#fff" stroke="#fff"><use xlink:href="#x_cS3EEYis50Jc8lckW2_bottom_soldermask"/></g></mask><mask id="x_cS3EEYis50Jc8lckW2_bottom_sm-mask"><g fill="#000" stroke="#000"><rect x="33020" y="28067" width="73660" height="63373" fill="#fff"/><use xlink:href="#x_cS3EEYis50Jc8lckW2_bottom_soldermask"/></g></mask></defs><g transform="translate(0,119507) scale(1,-1)"><g mask="url(#x_cS3EEYis50Jc8lckW2_bottom_mech-mask)" clip-path="url(#x_cS3EEYis50Jc8lckW2_bottom_outline)" transform="translate(139700,0) scale(-1,1)"><rect x="33020" y="28067" width="73660" height="63373" fill="currentColor" class="x_cS3EEYis50Jc8lckW2_fr4"/><use xlink:href="#x_cS3EEYis50Jc8lckW2_bottom_copper" fill="currentColor" stroke="currentColor" class="x_cS3EEYis50Jc8lckW2_cu"/><use xlink:href="#x_cS3EEYis50Jc8lckW2_bottom_copper" fill="currentColor" stroke="currentColor" class="x_cS3EEYis50Jc8lckW2_cf" mask="url(#x_cS3EEYis50Jc8lckW2_bottom_cf-mask)"/><g mask="url(#x_cS3EEYis50Jc8lckW2_bottom_sm-mask)"><rect x="33020" y="28067" width="73660" height="63373" fill="currentColor" class="x_cS3EEYis50Jc8lckW2_sm"/></g></g></g></svg>