<svg version="1.1" xmlns="http://www.w3.org/2000/svg" xmlns:xlink="http://www.w3.org/1999/xlink" stroke-linecap="round" stroke-linejoin="round" stroke-width="0" fill-rule="evenodd" clip-rule="evenodd" id="x_cS3EEYis50Jc8lckW2_top" viewBox="33020 28067 73660 63373" width="73.66mm" height="63.373mm" class="w-100 h-100"><defs><style>.x_cS3EEYis50Jc8lckW2_fr4 {color: #666666;}
.x_cS3EEYis50Jc8lckW2_cu {color: #cccccc;}
.x_cS3EEYis50Jc8lckW2_cf {color: #cc9933;}
.x_cS3EEYis50Jc8lckW2_sm {color: #004200; opacity: 0.75;}
.x_cS3EEYis50Jc8lckW2_ss {color: #ffffff;}
.x_cS3EEYis50Jc8lckW2_sp {color: #999999;}
.x_cS3EEYis50Jc8lckW2_out {color: #000000;}</style><g id="BFyRmAXI7IdLm-vRDNx9_pad-10"><circle cx="-1000" cy="1000" r="50.8"/><circle cx="1000" cy="1000" r="50.8"/><circle cx="1000" cy="-1000" r="50.8"/><circle cx="-1000" cy="-1000" r="50.8"/><polygon points="-1000,949.2 1000,949.2 1000,1050.8 -1000,1050.8"/><polygon points="1050.8,1000 1050.8,-1000 949.2,-1000 949.2,1000"/><polygon points="1000,-1050.8 -1000,-1050.8 -1000,-949.2 1000,-949.2"/><polygon points="-949.2,-1000 -949.2,1000 -1050.8,1000 -1050.8,-1000"/><polygon points="-1000,1000 1000,1000 1000,-1000 -1000,-1000"/></g><g id="BFyRmAXI7IdLm-vRDNx9_pad-11"><circle cx="432" cy="400" r="50.8"/><circle cx="432" cy="-400" r="50.8"/><circle cx="-432" cy="-400" r="50.8"/><circle cx="-432" cy="400" r="50.8"/><polygon points="482.8,400 482.8,-400 381.2,-400 381.2,400"/><polygon points="432,-450.8 -432,-450.8 -432,-349.2 432,-349.2"/><polygon points="-381.2,-400 -381.2,400 -482.8,400 -482.8,-400"/><polygon points="-432,349.2 432,349.2 432,450.8 -432,450.8"/><polygon points="432,400 432,-400 -432,-400 -432,400"/></g><g id="BFyRmAXI7IdLm-vRDNx9_pad-12"><circle cx="-400" cy="432" r="50.8"/><circle cx="400" cy="432" r="50.8"/><circle cx="400" cy="-432" r="50.8"/><circle cx="-400" cy="-432" r="50.8"/><polygon points="-400,381.2 400,381.2 400,482.8 -400,482.8"/><polygon points="450.8,432 450.8,-432 349.2,-432 349.2,432"/><polygon points="400,-482.8 -400,-482.8 -400,-381.2 400,-381.2"/><polygon points="-349.2,-432 -349.2,432 -450.8,432 -450.8,-432"/><polygon points="-400,432 400,432 400,-432 -400,-432"/></g><circle cx="0" cy="0" r="1300.8" id="BFyRmAXI7IdLm-vRDNx9_pad-13"/><rect x="-222.3008" y="-916.5463" width="444.6016" height="1833.0926" rx="222.3008" ry="222.3008" id="BFyRmAXI7IdLm-vRDNx9_pad-14"/><g id="BFyRmAXI7IdLm-vRDNx9_pad-15"><circle cx="-400" cy="450" r="50.8"/><circle cx="400" cy="450" r="50.8"/><circle cx="400" cy="-450" r="50.8"/><circle cx="-400" cy="-450" r="50.8"/><polygon points="-400,399.2 400,399.2 400,500.8 -400,500.8"/><polygon points="450.8,450 450.8,-450 349.2,-450 349.2,450"/><polygon points="400,-500.8 -400,-500.8 -400,-399.2 400,-399.2"/><polygon points="-349.2,-450 -349.2,450 -450.8,450 -450.8,-450"/><polygon points="-400,450 400,450 400,-450 -400,-450"/></g><g id="BFyRmAXI7IdLm-vRDNx9_pad-16"><circle cx="-641.3" cy="-1404" r="50.8"/><circle cx="-641.3" cy="1404" r="50.8"/><circle cx="641.3" cy="1404" r="50.8"/><circle cx="641.3" cy="-1404" r="50.8"/><polygon points="-590.5,-1404 -590.5,1404 -692.1,1404 -692.1,-1404"/><polygon points="-641.3,1353.2 641.3,1353.2 641.3,1454.8 -641.3,1454.8"/><polygon points="692.1,1404 692.1,-1404 590.5,-1404 590.5,1404"/><polygon points="641.3,-1454.8 -641.3,-1454.8 -641.3,-1353.2 641.3,-1353.2"/><polygon points="-641.3,-1404 -641.3,1404 641.3,1404 641.3,-1404"/></g><g id="BFyRmAXI7IdLm-vRDNx9_pad-17"><circle cx="641.3" cy="-1404" r="50.8"/><circle cx="641.3" cy="1404" r="50.8"/><circle cx="-641.3" cy="1404" r="50.8"/><circle cx="-641.3" cy="-1404" r="50.8"/><polygon points="692.1,-1404 692.1,1404 590.5,1404 590.5,-1404"/><polygon points="641.3,1353.2 -641.3,1353.2 -641.3,1454.8 641.3,1454.8"/><polygon points="-590.5,1404 -590.5,-1404 -692.1,-1404 -692.1,1404"/><polygon points="-641.3,-1454.8 641.3,-1454.8 641.3,-1353.2 -641.3,-1353.2"/><polygon points="641.3,-1404 641.3,1404 -641.3,1404 -641.3,-1404"/></g><g id="BFyRmAXI7IdLm-vRDNx9_pad-18"><circle cx="850.5" cy="-603.8" r="50.8"/><circle cx="-850.5" cy="-603.8" r="50.8"/><circle cx="-850.5" cy="603.8" r="50.8"/><circle cx="850.5" cy="603.8" r="50.8"/><polygon points="850.5,-654.6 -850.5,-654.6 -850.5,-553 850.5,-553"/><polygon points="-799.7,-603.8 -799.7,603.8 -901.3,603.8 -901.3,-603.8"/><polygon points="-850.5,553 850.5,553 850.5,654.6 -850.5,654.6"/><polygon points="901.3,603.8 901.3,-603.8 799.7,-603.8 799.7,603.8"/><polygon points="850.5,-603.8 -850.5,-603.8 -850.5,603.8 850.5,603.8"/></g><g id="BFyRmAXI7IdLm-vRDNx9_pad-19"><circle cx="850.5" cy="603.8" r="50.8"/><circle cx="-850.5" cy="603.8" r="50.8"/><circle cx="-850.5" cy="-603.8" r="50.8"/><circle cx="850.5" cy="-603.8" r="50.8"/><polygon points="850.5,553 -850.5,553 -850.5,654.6 850.5,654.6"/><polygon points="-799.7,603.8 -799.7,-603.8 -901.3,-603.8 -901.3,603.8"/><polygon points="-850.5,-654.6 850.5,-654.6 850.5,-553 -850.5,-553"/><polygon points="901.3,-603.8 901.3,603.8 799.7,603.8 799.7,-603.8"/><polygon points="850.5,603.8 -850.5,603.8 -850.5,-603.8 850.5,-603.8"/></g><g id="BFyRmAXI7IdLm-vRDNx9_pad-20"><circle cx="1150" cy="1150" r="50"/><circle cx="1150" cy="-1150" r="50"/><circle cx="-1150" cy="-1150" r="50"/><circle cx="-1150" cy="1150" r="50"/><polygon points="1200,1150 1200,-1150 1100,-1150 1100,1150"/><polygon points="1150,-1200 -1150,-1200 -1150,-1100 1150,-1100"/><polygon points="-1100,-1150 -1100,1150 -1200,1150 -1200,-1150"/><polygon points="-1150,1100 1150,1100 1150,1200 -1150,1200"/><polygon points="1150,1150 1150,-1150 -1150,-1150 -1150,1150"/></g><circle cx="0" cy="0" r="1200" id="BFyRmAXI7IdLm-vRDNx9_pad-21"/><circle cx="0" cy="0" r="850.8" id="BFyRmAXI7IdLm-vRDNx9_pad-22"/><g id="BFyRmAXI7IdLm-vRDNx9_pad-23"><circle cx="800" cy="800" r="50.8"/><circle cx="800" cy="-800" r="50.8"/><circle cx="-800" cy="-800" r="50.8"/><circle cx="-800" cy="800" r="50.8"/><polygon points="850.8,800 850.8,-800 749.2,-800 749.2,800"/><polygon points="800,-850.8 -800,-850.8 -800,-749.2 800,-749.2"/><polygon points="-749.2,-800 -749.2,800 -850.8,800 -850.8,-800"/><polygon points="-800,749.2 800,749.2 800,850.8 -800,850.8"/><polygon points="800,800 800,-800 -800,-800 -800,800"/></g><rect x="-1000" y="-1000" width="2000" height="2000" id="bCeiQcmx0BVKXN3fqHAi_pad-10"/><rect x="-171.5008" y="-865.7463" width="343.0016" height="1731.4926" rx="171.5008" ry="171.5008" id="bCeiQcmx0BVKXN3fqHAi_pad-11"/><rect x="-400" y="-450" width="800" height="900" id="bCeiQcmx0BVKXN3fqHAi_pad-12"/><rect x="-1000" y="-1000" width="2000" height="2000" id="sewVTN4nIjeNXP86CuxT_pad-11"/><rect x="-432" y="-400" width="864" height="800" id="sewVTN4nIjeNXP86CuxT_pad-12"/><rect x="-400" y="-432" width="800" height="864" id="sewVTN4nIjeNXP86CuxT_pad-13"/><rect x="-171.5008" y="-865.7463" width="343.0016" height="1731.4926" rx="171.5008" ry="171.5008" id="sewVTN4nIjeNXP86CuxT_pad-14"/><rect x="-400" y="-450" width="800" height="900" id="sewVTN4nIjeNXP86CuxT_pad-15"/><polygon points="641.25,-1404 641.25,1404 -641.25,1404 -641.25,-1404" id="sewVTN4nIjeNXP86CuxT_pad-16"/><rect x="-850.5" y="-603.75" width="1701" height="1207.5" id="sewVTN4nIjeNXP86CuxT_pad-17"/><rect x="-850.5" y="-603.75" width="1701" height="1207.5" id="sewVTN4nIjeNXP86CuxT_pad-18"/><circle cx="0" cy="0" r="1250" id="sewVTN4nIjeNXP86CuxT_pad-19"/><rect x="-1150" y="-1150" width="2300" height="2300" id="sewVTN4nIjeNXP86CuxT_pad-20"/><circle cx="0" cy="0" r="1150" id="sewVTN4nIjeNXP86CuxT_pad-21"/><circle cx="0" cy="0" r="800" id="sewVTN4nIjeNXP86CuxT_pad-22"/><rect x="-800" y="-800" width="1600" height="1600" id="sewVTN4nIjeNXP86CuxT_pad-23"/><circle cx="0" cy="0" r="310" id="sewVTN4nIjeNXP86CuxT_pad-24"/><circle cx="0" cy="0" r="155" id="isw5BwHnlM3rAMoXoEB1_pad-1"/><circle cx="0" cy="0" r="525" id="isw5BwHnlM3rAMoXoEB1_pad-2"/><circle cx="0" cy="0" r="650.5" id="isw5BwHnlM3rAMoXoEB1_pad-3"/><circle cx="0" cy="0" r="800" id="isw5BwHnlM3rAMoXoEB1_pad-4"/><circle cx="0" cy="0" r="1600" id="spCvDqJlmyudYSyu4Vtb_pad-1"/><circle cx="0" cy="0" r="155" id="yPmdAR-WPUrKBMueeP7U_pad-1"/><g id="x_cS3EEYis50Jc8lckW2_top_soldermask"><use xlink:href="#BFyRmAXI7IdLm-vRDNx9_pad-10" x="58420" y="34417"/><use xlink:href="#BFyRmAXI7IdLm-vRDNx9_pad-11" x="88518.87" y="69150"/><use xlink:href="#BFyRmAXI7IdLm-vRDNx9_pad-11" x="88518.87" y="70549.99"/><use xlink:href="#BFyRmAXI7IdLm-vRDNx9_pad-12" x="61913.99" y="83184.87"/><use xlink:href="#BFyRmAXI7IdLm-vRDNx9_pad-12" x="60514" y="83184.87"/><use xlink:href="#BFyRmAXI7IdLm-vRDNx9_pad-13" x="43888.65" y="69295.01"/><use xlink:href="#BFyRmAXI7IdLm-vRDNx9_pad-13" x="43888.65" y="74295"/><use xlink:href="#BFyRmAXI7IdLm-vRDNx9_pad-13" x="43888.65" y="79294.98"/><use xlink:href="#BFyRmAXI7IdLm-vRDNx9_pad-14" x="84592.92" y="49585.11"/><use xlink:href="#BFyRmAXI7IdLm-vRDNx9_pad-14" x="85242.9" y="49585.11"/><use xlink:href="#BFyRmAXI7IdLm-vRDNx9_pad-14" x="85892.89" y="49585.11"/><use xlink:href="#BFyRmAXI7IdLm-vRDNx9_pad-14" x="86543.13" y="49585.11"/><use xlink:href="#BFyRmAXI7IdLm-vRDNx9_pad-14" x="87193.11" y="49585.11"/><use xlink:href="#BFyRmAXI7IdLm-vRDNx9_pad-14" x="87843.1" y="49585.11"/><use xlink:href="#BFyRmAXI7IdLm-vRDNx9_pad-14" x="88493.09" y="49585.11"/><use xlink:href="#BFyRmAXI7IdLm-vRDNx9_pad-14" x="89143.07" y="49585.11"/><use xlink:href="#BFyRmAXI7IdLm-vRDNx9_pad-14" x="84592.92" y="55316.62"/><use xlink:href="#BFyRmAXI7IdLm-vRDNx9_pad-14" x="85242.9" y="55316.62"/><use xlink:href="#BFyRmAXI7IdLm-vRDNx9_pad-14" x="85892.89" y="55316.62"/><use xlink:href="#BFyRmAXI7IdLm-vRDNx9_pad-14" x="86543.13" y="55316.62"/><use xlink:href="#BFyRmAXI7IdLm-vRDNx9_pad-14" x="87193.11" y="55316.62"/><use xlink:href="#BFyRmAXI7IdLm-vRDNx9_pad-14" x="87843.1" y="55316.62"/><use xlink:href="#BFyRmAXI7IdLm-vRDNx9_pad-14" x="88493.09" y="55316.62"/><use xlink:href="#BFyRmAXI7IdLm-vRDNx9_pad-14" x="89143.07" y="55316.62"/><use xlink:href="#BFyRmAXI7IdLm-vRDNx9_pad-15" x="75756.99" y="61087"/><use xlink:href="#BFyRmAXI7IdLm-vRDNx9_pad-15" x="74357" y="61087"/><use xlink:href="#BFyRmAXI7IdLm-vRDNx9_pad-15" x="75756.99" y="65786"/><use xlink:href="#BFyRmAXI7IdLm-vRDNx9_pad-15" x="74357" y="65786"/><use xlink:href="#BFyRmAXI7IdLm-vRDNx9_pad-15" x="75756.99" y="70485"/><use xlink:href="#BFyRmAXI7IdLm-vRDNx9_pad-15" x="74356.98" y="70485"/><use xlink:href="#BFyRmAXI7IdLm-vRDNx9_pad-16" x="59226.25" y="52451"/><use xlink:href="#BFyRmAXI7IdLm-vRDNx9_pad-17" x="56343.74" y="52451"/><use xlink:href="#BFyRmAXI7IdLm-vRDNx9_pad-16" x="59226.25" y="58420"/><use xlink:href="#BFyRmAXI7IdLm-vRDNx9_pad-17" x="56343.74" y="58420"/><use xlink:href="#BFyRmAXI7IdLm-vRDNx9_pad-16" x="59226.25" y="66040"/><use xlink:href="#BFyRmAXI7IdLm-vRDNx9_pad-17" x="56343.74" y="66040"/><use xlink:href="#BFyRmAXI7IdLm-vRDNx9_pad-18" x="88519" y="65105.76"/><use xlink:href="#BFyRmAXI7IdLm-vRDNx9_pad-19" x="88519" y="62148.23"/><use xlink:href="#BFyRmAXI7IdLm-vRDNx9_pad-18" x="78105" y="80980.76"/><use xlink:href="#BFyRmAXI7IdLm-vRDNx9_pad-19" x="78105" y="78023.23"/><use xlink:href="#BFyRmAXI7IdLm-vRDNx9_pad-20" x="43888.1" y="58387.08"/><use xlink:href="#BFyRmAXI7IdLm-vRDNx9_pad-21" x="43888.15" y="53386.98"/><use xlink:href="#BFyRmAXI7IdLm-vRDNx9_pad-21" x="43888.15" y="48387"/><use xlink:href="#BFyRmAXI7IdLm-vRDNx9_pad-21" x="43888.15" y="43387.01"/><use xlink:href="#BFyRmAXI7IdLm-vRDNx9_pad-21" x="43888.15" y="38387.02"/><use xlink:href="#BFyRmAXI7IdLm-vRDNx9_pad-22" x="69596" y="34925"/><use xlink:href="#BFyRmAXI7IdLm-vRDNx9_pad-22" x="69596" y="37465"/><use xlink:href="#BFyRmAXI7IdLm-vRDNx9_pad-22" x="69596" y="40005"/><use xlink:href="#BFyRmAXI7IdLm-vRDNx9_pad-22" x="69596" y="42545"/><use xlink:href="#BFyRmAXI7IdLm-vRDNx9_pad-22" x="69596" y="45085"/><use xlink:href="#BFyRmAXI7IdLm-vRDNx9_pad-22" x="69596" y="47625"/><use xlink:href="#BFyRmAXI7IdLm-vRDNx9_pad-22" x="69596" y="50165"/><use xlink:href="#BFyRmAXI7IdLm-vRDNx9_pad-22" x="69596" y="52705"/><use xlink:href="#BFyRmAXI7IdLm-vRDNx9_pad-22" x="69596" y="55245"/><use xlink:href="#BFyRmAXI7IdLm-vRDNx9_pad-22" x="69596" y="57785"/><use xlink:href="#BFyRmAXI7IdLm-vRDNx9_pad-22" x="69596" y="60325"/><use xlink:href="#BFyRmAXI7IdLm-vRDNx9_pad-22" x="69596" y="62865"/><use xlink:href="#BFyRmAXI7IdLm-vRDNx9_pad-22" x="69596" y="65405"/><use xlink:href="#BFyRmAXI7IdLm-vRDNx9_pad-22" x="69596" y="67945"/><use xlink:href="#BFyRmAXI7IdLm-vRDNx9_pad-22" x="69596" y="70485"/><use xlink:href="#BFyRmAXI7IdLm-vRDNx9_pad-22" x="69596" y="73025"/><use xlink:href="#BFyRmAXI7IdLm-vRDNx9_pad-22" x="69596" y="75565"/><use xlink:href="#BFyRmAXI7IdLm-vRDNx9_pad-22" x="69596" y="78105"/><use xlink:href="#BFyRmAXI7IdLm-vRDNx9_pad-23" x="69596" y="80645"/><use xlink:href="#BFyRmAXI7IdLm-vRDNx9_pad-22" x="94996" y="34925"/><use xlink:href="#BFyRmAXI7IdLm-vRDNx9_pad-22" x="94996" y="37465"/><use xlink:href="#BFyRmAXI7IdLm-vRDNx9_pad-22" x="94996" y="40005"/><use xlink:href="#BFyRmAXI7IdLm-vRDNx9_pad-22" x="94996" y="42545"/><use xlink:href="#BFyRmAXI7IdLm-vRDNx9_pad-22" x="94996" y="45085"/><use xlink:href="#BFyRmAXI7IdLm-vRDNx9_pad-22" x="94996" y="47625"/><use xlink:href="#BFyRmAXI7IdLm-vRDNx9_pad-22" x="94996" y="50165"/><use xlink:href="#BFyRmAXI7IdLm-vRDNx9_pad-22" x="94996" y="52705"/><use xlink:href="#BFyRmAXI7IdLm-vRDNx9_pad-22" x="94996" y="55245"/><use xlink:href="#BFyRmAXI7IdLm-vRDNx9_pad-22" x="94996" y="57785"/><use xlink:href="#BFyRmAXI7IdLm-vRDNx9_pad-22" x="94996" y="60325"/><use xlink:href="#BFyRmAXI7IdLm-vRDNx9_pad-22" x="94996" y="62865"/><use xlink:href="#BFyRmAXI7IdLm-vRDNx9_pad-22" x="94996" y="65405"/><use xlink:href="#BFyRmAXI7IdLm-vRDNx9_pad-22" x="94996" y="67945"/><use xlink:href="#BFyRmAXI7IdLm-vRDNx9_pad-22" x="94996" y="70485"/><use xlink:href="#BFyRmAXI7IdLm-vRDNx9_pad-22" x="94996" y="73025"/><use xlink:href="#BFyRmAXI7IdLm-vRDNx9_pad-22" x="94996" y="75565"/><use xlink:href="#BFyRmAXI7IdLm-vRDNx9_pad-22" x="94996" y="78105"/><use xlink:href="#BFyRmAXI7IdLm-vRDNx9_pad-23" x="94996" y="80645"/></g><g id="x_cS3EEYis50Jc8lckW2_top_silkscreen"><path d="M 39751.2 84622.63 39751.2 83383.12 M 39751.2 84622.63 40223.64 83383.12 M 40696.08 84622.63 40223.64 83383.12 M 40696.08 84622.63 40696.08 83383.12 M 41087.24 84622.63 41087.24 83383.12 M 41475.86 84622.63 41475.86 83383.12 M 41475.86 84622.63 41889.88 84622.63 42067.68 84564.21 42184.52 84447.37 42245.48 84328 42303.9 84150.2 42303.9 83855.55 42245.48 83677.76 42184.52 83560.92 42067.68 83441.54 41889.88 83383.12 41475.86 83383.12 M 42692.52 84622.63 42692.52 83383.12 M 44348.6 84622.63 44229.22 84564.21 44112.38 84447.37 44053.96 84328 43993 84150.2 43993 83855.55 44053.96 83677.76 44112.38 83560.92 44229.22 83441.54 44348.6 83383.12 44584.82 83383.12 44701.66 83441.54 44821.04 83560.92 44879.46 83677.76 44940.42 83855.55 44940.42 84150.2 44879.46 84328 44821.04 84447.37 44701.66 84564.21 44584.82 84622.63 44348.6 84622.63 M 45329.04 84622.63 45329.04 83738.71 45387.46 83560.92 45506.84 83441.54 45684.64 83383.12 45801.48 83383.12 45979.28 83441.54 46096.12 83560.92 46157.08 83738.71 46157.08 84622.63 M 46959.72 84622.63 46959.72 83383.12 M 46545.7 84622.63 47373.74 84622.63 M 41148.2 63413.63 41148.2 62174.12 M 41148.2 63413.63 41679.06 63413.63 41856.86 63355.21 41915.28 63296.79 41976.24 63177.42 41976.24 63002.15 41915.28 62882.78 41856.86 62824.36 41679.06 62765.94 41148.2 62765.94 M 42364.86 63413.63 42364.86 62174.12 M 42364.86 63413.63 43134.48 63413.63 M 42364.86 62824.36 42837.3 62824.36 M 42364.86 62174.12 43134.48 62174.12 M 43523.1 63413.63 43523.1 62174.12 M 43523.1 63413.63 43937.12 63413.63 44114.92 63355.21 44231.76 63238.37 44292.72 63119 44351.14 62941.2 44351.14 62646.55 44292.72 62468.76 44231.76 62351.92 44114.92 62232.54 43937.12 62174.12 43523.1 62174.12 M 45212.2 63413.63 44739.76 62174.12 M 45212.2 63413.63 45687.18 62174.12 M 44917.56 62588.13 45509.38 62588.13 M 46075.8 63413.63 46075.8 62174.12 46784.46 62174.12 M 65986.65 81960.71 66385.43 81960.71 66167 81668.62 66276.22 81668.62 66349.88 81633.05 66385.43 81597.5 66421 81488.28 66421 81414.62 66385.43 81305.39 66311.77 81231.73 66205.09 81196.18 66095.88 81196.18 65986.65 81231.73 65948.56 81269.84 65913 81340.95 M 66662.29 81706.71 66880.74 81196.18 M 67099.18 81706.71 66880.74 81196.18 M 67411.59 81960.71 67810.38 81960.71 67591.93 81668.62 67701.15 81668.62 67774.81 81633.05 67810.38 81597.5 67848.47 81488.28 67848.47 81414.62 67810.38 81305.39 67739.25 81231.73 67630.04 81196.18 67520.81 81196.18 67411.59 81231.73 67376.04 81269.84 67337.93 81340.95 M 97193.09 81650.84 97155 81724.5 97083.88 81798.15 97010.22 81833.71 96865.43 81833.71 96791.77 81798.15 96720.65 81724.5 96682.56 81650.84 96647 81541.62 96647 81361.28 96682.56 81252.05 96720.65 81178.39 96791.77 81104.73 96865.43 81069.18 97010.22 81069.18 97083.88 81104.73 97155 81178.39 97193.09 81252.05 97193.09 81361.28 M 97010.22 81361.28 97193.09 81361.28 M 97431.86 81833.71 97431.86 81069.18 M 97431.86 81833.71 97942.4 81069.18 M 97942.4 81833.71 97942.4 81069.18 M 98181.15 81833.71 98181.15 81069.18 M 98181.15 81833.71 98435.15 81833.71 98544.38 81798.15 98618.04 81724.5 98653.59 81650.84 98691.7 81541.62 98691.7 81361.28 98653.59 81252.05 98618.04 81178.39 98544.38 81104.73 98435.15 81069.18 98181.15 81069.18 M 35941 69334.37 36304.22 68379.34 M 36667.43 69334.37 36304.22 68379.34 M 36967.15 69334.37 36967.15 68379.34 M 36967.15 69334.37 37287.2 69334.37 37421.81 69288.65 37513.25 69199.76 37558.97 69108.31 37604.7 68971.15 37604.7 68745.1 37558.97 68607.94 37513.25 68516.5 37421.81 68425.05 37287.2 68379.34 36967.15 68379.34 M 37904.41 69334.37 37904.41 68379.34 M 37904.41 69334.37 38221.91 69334.37 38359.08 69288.65 38450.52 69199.76 38496.24 69108.31 38541.95 68971.15 38541.95 68745.1 38496.24 68607.94 38450.52 68516.5 38359.08 68425.05 38221.91 68379.34 37904.41 68379.34 M 37287.27 74795.37 37287.27 73840.34 M 36969.77 74795.37 37607.31 74795.37 M 37907.03 74795.37 38542.03 73840.34 M 38542.03 74795.37 37907.03 73840.34 M 36667.49 79776.31 36624.31 79867.76 36532.87 79956.65 36441.43 80002.37 36258.55 80002.37 36169.65 79956.65 36078.21 79867.76 36032.49 79776.31 35986.77 79639.15 35986.77 79413.1 36032.49 79275.94 36078.21 79184.5 36169.65 79093.05 36258.55 79047.34 36441.43 79047.34 36532.87 79093.05 36624.31 79184.5 36667.49 79275.94 36667.49 79413.1 M 36441.43 79413.1 36667.49 79413.1 M 36969.75 80002.37 36969.75 79047.34 M 36969.75 80002.37 37604.75 79047.34 M 37604.75 80002.37 37604.75 79047.34 M 37904.47 80002.37 37904.47 79047.34 M 37904.47 80002.37 38221.97 80002.37 38359.13 79956.65 38450.57 79867.76 38496.29 79776.31 38542.01 79639.15 38542.01 79413.1 38496.29 79275.94 38450.57 79184.5 38359.13 79093.05 38221.97 79047.34 37904.47 79047.34 M 35941 58920.37 36304.22 57965.34 M 36667.43 58920.37 36304.22 57965.34 M 36967.15 58920.37 36967.15 57965.34 M 36967.15 58920.37 37287.2 58920.37 37421.81 58874.65 37513.25 58785.76 37558.97 58694.31 37604.7 58557.15 37604.7 58331.1 37558.97 58193.94 37513.25 58102.5 37421.81 58011.05 37287.2 57965.34 36967.15 57965.34 M 37904.41 58920.37 37904.41 57965.34 M 37904.41 58920.37 38221.91 58920.37 38359.08 58874.65 38450.52 58785.76 38496.24 58694.31 38541.95 58557.15 38541.95 58331.1 38496.24 58193.94 38450.52 58102.5 38359.08 58011.05 38221.91 57965.34 37904.41 57965.34 M 36969.77 53840.37 36969.77 52885.34 M 36969.77 53840.37 37378.71 53840.37 37515.87 53794.65 37561.59 53748.94 37607.31 53660.04 37607.31 53522.87 37561.59 53431.44 37515.87 53385.71 37378.71 53340 36969.77 53340 M 37995.93 53840.37 38496.31 53840.37 38224.53 53477.15 38361.69 53477.15 38450.59 53431.44 38496.31 53385.71 38542.03 53251.1 38542.03 53159.65 38496.31 53022.5 38404.87 52931.05 38270.25 52885.34 38133.09 52885.34 37995.93 52931.05 37952.75 52976.78 37907.03 53068.21 M 36969.77 49014.37 36969.77 48059.34 M 36969.77 49014.37 37378.71 49014.37 37515.87 48968.65 37561.59 48922.94 37607.31 48834.04 37607.31 48696.87 37561.59 48605.44 37515.87 48559.71 37378.71 48514 36969.77 48514 M 37952.75 48788.31 37952.75 48834.04 37995.93 48922.94 38041.65 48968.65 38133.09 49014.37 38315.97 49014.37 38404.87 48968.65 38450.59 48922.94 38496.31 48834.04 38496.31 48742.6 38450.59 48651.15 38361.69 48514 37907.03 48059.34 38542.03 48059.34 M 37378.69 43807.37 37378.69 42852.34 M 37378.69 43807.37 37787.63 43807.37 37924.79 43761.65 37970.51 43715.94 38016.23 43627.04 38016.23 43489.87 37970.51 43398.44 37924.79 43352.71 37787.63 43307 37378.69 43307 M 38315.95 43627.04 38404.85 43672.76 38542.01 43807.37 38542.01 42852.34 M 36621.72 38755.31 36578.54 38846.76 36487.09 38935.65 36395.65 38981.37 36212.77 38981.37 36123.88 38935.65 36032.43 38846.76 35986.72 38755.31 35941 38618.15 35941 38392.1 35986.72 38254.94 36032.43 38163.5 36123.88 38072.05 36212.77 38026.34 36395.65 38026.34 36487.09 38072.05 36578.54 38163.5 36621.72 38254.94 36621.72 38392.1 M 36395.65 38392.1 36621.72 38392.1 M 36923.97 38981.37 36923.97 38026.34 M 36923.97 38981.37 37558.97 38026.34 M 37558.97 38981.37 37558.97 38026.34 M 37858.7 38981.37 37858.7 38026.34 M 37858.7 38981.37 38176.2 38981.37 38313.36 38935.65 38404.79 38846.76 38450.52 38755.31 38496.24 38618.15 38496.24 38392.1 38450.52 38254.94 38404.79 38163.5 38313.36 38072.05 38176.2 38026.34 37858.7 38026.34 M 50965.09 89905.84 50419 88473.28 M 50965.09 89905.84 51508.65 88473.28 M 50624.74 88950.79 51305.45 88950.79 M 51960.77 89428.31 51960.77 88473.28 M 51960.77 89156.54 52163.97 89359.74 52301.13 89428.31 52504.34 89428.31 52641.5 89359.74 52710.08 89156.54 52710.08 88473.28 M 53977.54 89428.31 53977.54 88473.28 M 53977.54 89222.58 53842.91 89359.74 53705.75 89428.31 53500.02 89428.31 53365.4 89359.74 53228.24 89222.58 53159.65 89019.37 53159.65 88882.21 53228.24 88679.02 53365.4 88541.86 53500.02 88473.28 53705.75 88473.28 53842.91 88541.86 53977.54 88679.02 M 54427.11 89905.84 54427.11 88473.28 M 55219.59 89428.31 55082.43 89359.74 54945.27 89222.58 54879.24 89019.37 54879.24 88882.21 54945.27 88679.02 55082.43 88541.86 55219.59 88473.28 55422.79 88473.28 55559.95 88541.86 55697.11 88679.02 55765.7 88882.21 55765.7 89019.37 55697.11 89222.58 55559.95 89359.74 55422.79 89428.31 55219.59 89428.31 M 57033.15 89428.31 57033.15 88338.65 56964.58 88132.92 56896 88064.34 56758.84 87995.76 56555.63 87995.76 56418.47 88064.34 M 57033.15 89222.58 56896 89359.74 56758.84 89428.31 56555.63 89428.31 56418.47 89359.74 56283.86 89222.58 56215.27 89019.37 56215.27 88882.21 56283.86 88679.02 56418.47 88541.86 56555.63 88473.28 56758.84 88473.28 56896 88541.86 57033.15 88679.02 M 58737.5 89905.84 58737.5 88747.6 58806.08 88541.86 58940.7 88473.28 59077.86 88473.28 M 58531.75 89428.31 59009.27 89428.31 M 59867.79 89428.31 59733.18 89359.74 59596.02 89222.58 59527.43 89019.37 59527.43 88882.21 59596.02 88679.02 59733.18 88541.86 59867.79 88473.28 60073.54 88473.28 60210.7 88541.86 60345.31 88679.02 60413.9 88882.21 60413.9 89019.37 60345.31 89222.58 60210.7 89359.74 60073.54 89428.31 59867.79 89428.31 M 61915.04 89905.84 61915.04 88473.28 M 61915.04 89905.84 62461.13 88473.28 M 63004.7 89905.84 62461.13 88473.28 M 63004.7 89905.84 63004.7 88473.28 M 63454.27 89905.84 63454.27 88473.28 M 63906.4 89905.84 63906.4 88473.28 M 63906.4 89905.84 64381.38 89905.84 64587.11 89837.26 64724.27 89700.1 64792.86 89565.47 64858.9 89359.74 64858.9 89019.37 64792.86 88813.63 64724.27 88679.02 64587.11 88541.86 64381.38 88473.28 63906.4 88473.28 M 65311.02 89905.84 65311.02 88473.28 M 67015.36 89905.84 67015.36 88747.6 67081.4 88541.86 67218.56 88473.28 67355.72 88473.28 M 66809.61 89428.31 67287.13 89428.31 M 67805.29 89428.31 67805.29 88473.28 M 67805.29 89019.37 67873.88 89222.58 68011.04 89359.74 68145.65 89428.31 68351.4 89428.31 M 68800.97 89905.84 68869.56 89837.26 68938.13 89905.84 68869.56 89974.42 68800.97 89905.84 M 68869.56 89428.31 68869.56 88473.28 M 69387.72 89428.31 69387.72 87995.76 M 69387.72 89222.58 69522.34 89359.74 69659.5 89428.31 69865.24 89428.31 69999.86 89359.74 70137.02 89222.58 70205.59 89019.37 70205.59 88882.21 70137.02 88679.02 69999.86 88541.86 69865.24 88473.28 69659.5 88473.28 69522.34 88541.86 69387.72 88679.02 M 70655.18 89905.84 70655.18 88473.28 M 71104.75 89019.37 71922.63 89019.37 71922.63 89156.54 71854.06 89291.15 71788.02 89359.74 71650.86 89428.31 71445.11 89428.31 71310.5 89359.74 71173.34 89222.58 71104.75 89019.37 71104.75 88882.21 71173.34 88679.02 71310.5 88541.86 71445.11 88473.28 71650.86 88473.28 71788.02 88541.86 71922.63 88679.02 M 73423.77 89428.31 73423.77 87995.76 M 73423.77 89222.58 73560.93 89359.74 73695.56 89428.31 73901.29 89428.31 74035.91 89359.74 74173.08 89222.58 74241.65 89019.37 74241.65 88882.21 74173.08 88679.02 74035.91 88541.86 73901.29 88473.28 73695.56 88473.28 73560.93 88541.86 73423.77 88679.02 M 74691.24 89019.37 75509.11 89019.37 75509.11 89156.54 75440.54 89291.15 75374.5 89359.74 75237.34 89428.31 75031.59 89428.31 74896.97 89359.74 74759.81 89222.58 74691.24 89019.37 74691.24 88882.21 74759.81 88679.02 74896.97 88541.86 75031.59 88473.28 75237.34 88473.28 75374.5 88541.86 75509.11 88679.02 M 76779.11 89905.84 76779.11 88473.28 M 76779.11 89222.58 76641.95 89359.74 76504.79 89428.31 76301.59 89428.31 76164.43 89359.74 76027.27 89222.58 75958.7 89019.37 75958.7 88882.21 76027.27 88679.02 76164.43 88541.86 76301.59 88473.28 76504.79 88473.28 76641.95 88541.86 76779.11 88679.02 M 78046.58 89428.31 78046.58 88473.28 M 78046.58 89222.58 77909.41 89359.74 77772.25 89428.31 77569.06 89428.31 77431.9 89359.74 77297.27 89222.58 77228.7 89019.37 77228.7 88882.21 77297.27 88679.02 77431.9 88541.86 77569.06 88473.28 77772.25 88473.28 77909.41 88541.86 78046.58 88679.02 M 78496.15 89905.84 78496.15 88473.28 M 79997.29 89428.31 79997.29 88747.6 80063.34 88541.86 80200.5 88473.28 80406.24 88473.28 80540.86 88541.86 80746.59 88747.6 M 80746.59 89428.31 80746.59 88473.28 M 81196.18 89428.31 81196.18 88473.28 M 81196.18 89156.54 81401.91 89359.74 81536.54 89428.31 81742.27 89428.31 81876.9 89359.74 81945.47 89156.54 81945.47 88473.28 M 82395.06 89905.84 82463.63 89837.26 82532.22 89905.84 82463.63 89974.42 82395.06 89905.84 M 82463.63 89428.31 82463.63 88473.28 M 83187.54 89905.84 83187.54 88747.6 83256.11 88541.86 83390.74 88473.28 83527.9 88473.28 M 82981.79 89428.31 83459.31 89428.31 M 85846.91 89428.31 85846.91 88473.28 M 85846.91 89222.58 85709.75 89359.74 85572.59 89428.31 85369.4 89428.31 85232.24 89359.74 85095.08 89222.58 85029.04 89019.37 85029.04 88882.21 85095.08 88679.02 85232.24 88541.86 85369.4 88473.28 85572.59 88473.28 85709.75 88541.86 85846.91 88679.02 M 87114.38 89905.84 87114.38 88473.28 M 87114.38 89222.58 86977.22 89359.74 86842.59 89428.31 86636.86 89428.31 86499.7 89359.74 86365.08 89222.58 86296.5 89019.37 86296.5 88882.21 86365.08 88679.02 86499.7 88541.86 86636.86 88473.28 86842.59 88473.28 86977.22 88541.86 87114.38 88679.02 M 88381.84 89428.31 88381.84 88473.28 M 88381.84 89222.58 88247.22 89359.74 88110.06 89428.31 87904.31 89428.31 87769.7 89359.74 87632.54 89222.58 87563.95 89019.37 87563.95 88882.21 87632.54 88679.02 87769.7 88541.86 87904.31 88473.28 88110.06 88473.28 88247.22 88541.86 88381.84 88679.02 M 88831.41 89428.31 88831.41 87995.76 M 88831.41 89222.58 88968.58 89359.74 89105.74 89428.31 89308.93 89428.31 89446.09 89359.74 89583.25 89222.58 89651.84 89019.37 89651.84 88882.21 89583.25 88679.02 89446.09 88541.86 89308.93 88473.28 89105.74 88473.28 88968.58 88541.86 88831.41 88679.02 M 90304.61 89905.84 90304.61 88747.6 90373.2 88541.86 90510.36 88473.28 90644.97 88473.28 M 90101.41 89428.31 90578.93 89428.31 M 91097.09 89019.37 91914.97 89019.37 91914.97 89156.54 91846.4 89291.15 91777.81 89359.74 91640.65 89428.31 91437.45 89428.31 91300.29 89359.74 91163.13 89222.58 91097.09 89019.37 91097.09 88882.21 91163.13 88679.02 91300.29 88541.86 91437.45 88473.28 91640.65 88473.28 91777.81 88541.86 91914.97 88679.02 M 92364.56 89428.31 92364.56 88473.28 M 92364.56 89019.37 92433.13 89222.58 92567.75 89359.74 92704.91 89428.31 92910.65 89428.31 M 73279 36311.84 73279 34879.28 M 73279 36311.84 74165.45 36311.84 M 73279 35628.57 73825.09 35628.57 M 73279 34879.28 74165.45 34879.28 M 75570.08 36106.1 75432.91 36243.26 75229.72 36311.84 74955.4 36311.84 74752.2 36243.26 74615.04 36106.1 74615.04 35971.47 74683.61 35834.31 74752.2 35765.73 74886.81 35697.15 75298.29 35562.54 75432.91 35493.95 75501.5 35425.37 75570.08 35288.21 75570.08 35085.02 75432.91 34947.86 75229.72 34879.28 74955.4 34879.28 74752.2 34947.86 74615.04 35085.02 M 76019.65 36311.84 76019.65 34879.28 M 76019.65 36311.84 76634.34 36311.84 76837.54 36243.26 76906.11 36174.68 76974.7 36040.05 76974.7 35834.31 76906.11 35697.15 76837.54 35628.57 76634.34 35562.54 76019.65 35562.54 M 77561.43 36311.84 78310.74 36311.84 77901.79 35765.73 78105 35765.73 78242.15 35697.15 78310.74 35628.57 78379.31 35425.37 78379.31 35288.21 78310.74 35085.02 78173.58 34947.86 77970.38 34879.28 77764.63 34879.28 77561.43 34947.86 77492.86 35016.44 77424.27 35153.6 M 78897.47 35971.47 78897.47 36040.05 78966.06 36174.68 79034.63 36243.26 79169.25 36311.84 79443.58 36311.84 79578.2 36243.26 79646.77 36174.68 79715.36 36040.05 79715.36 35902.89 79646.77 35765.73 79509.61 35562.54 78828.9 34879.28 79783.93 34879.28 M 80233.52 35493.95 81460.34 35493.95 M 81909.91 36311.84 81909.91 34879.28 M 81909.91 36311.84 82387.43 36311.84 82593.18 36243.26 82727.79 36106.1 82796.38 35971.47 82864.95 35765.73 82864.95 35425.37 82796.38 35219.63 82727.79 35085.02 82593.18 34947.86 82387.43 34879.28 81909.91 34879.28 M 83314.54 35425.37 84132.41 35425.37 84132.41 35562.54 84066.38 35697.15 83997.79 35765.73 83860.63 35834.31 83657.43 35834.31 83520.27 35765.73 83383.11 35628.57 83314.54 35425.37 83314.54 35288.21 83383.11 35085.02 83520.27 34947.86 83657.43 34879.28 83860.63 34879.28 83997.79 34947.86 84132.41 35085.02 M 84584.54 35834.31 84993.47 34879.28 M 85402.41 35834.31 84993.47 34879.28 M 85852 36311.84 85852 34879.28 M 86532.72 35834.31 85852 35153.6 M 86123.77 35425.37 86601.29 34879.28 M 87050.88 36311.84 87119.45 36243.26 87188.04 36311.84 87119.45 36380.42 87050.88 36311.84 M 87119.45 35834.31 87119.45 34879.28 M 87843.36 36311.84 87843.36 35153.6 87911.93 34947.86 88046.56 34879.28 88183.72 34879.28 M 87637.61 35834.31 88115.13 35834.31 M 88633.29 35493.95 89860.11 35493.95 M 91333.31 35971.47 91264.74 36106.1 91130.11 36243.26 90992.95 36311.84 90718.63 36311.84 90584.02 36243.26 90446.86 36106.1 90378.27 35971.47 90309.7 35765.73 90309.7 35425.37 90378.27 35219.63 90446.86 35085.02 90584.02 34947.86 90718.63 34879.28 90992.95 34879.28 91130.11 34947.86 91264.74 35085.02 91333.31 35219.63 M 66666.11 71546.71 67064.88 71546.71 66846.45 71254.62 66955.66 71254.62 67029.33 71219.05 67064.88 71183.5 67100.45 71074.28 67100.45 71000.62 67064.88 70891.39 66991.22 70817.73 66884.54 70782.18 66775.33 70782.18 66666.11 70817.73 66628 70855.84 66592.45 70926.95 M 67704.97 71546.71 67341.75 71036.18 67887.84 71036.18 M 67704.97 71546.71 67704.97 70782.18 M 66685.15 66720.71 67083.93 66720.71 66865.5 66428.62 66974.72 66428.62 67048.38 66393.05 67083.93 66357.5 67119.5 66248.28 67119.5 66174.62 67083.93 66065.39 67010.27 65991.73 66903.59 65956.18 66794.38 65956.18 66685.15 65991.73 66647.06 66029.84 66611.5 66100.95 M 67396.36 66537.84 67396.36 66575.94 67434.45 66647.05 67470.02 66685.15 67541.13 66720.71 67688.45 66720.71 67759.58 66685.15 67797.68 66647.05 67833.24 66575.94 67833.24 66502.28 67797.68 66428.62 67724.02 66319.39 67360.79 65956.18 67868.79 65956.18 M 66685.15 63545.71 67083.93 63545.71 66865.5 63253.62 66974.72 63253.62 67048.38 63218.05 67083.93 63182.5 67119.5 63073.28 67119.5 62999.62 67083.93 62890.39 67010.27 62816.73 66903.59 62781.18 66794.38 62781.18 66685.15 62816.73 66647.06 62854.84 66611.5 62925.95 M 67434.45 63545.71 67833.24 63545.71 67614.79 63253.62 67724.02 63253.62 67797.68 63218.05 67833.24 63182.5 67868.79 63073.28 67868.79 62999.62 67833.24 62890.39 67759.58 62816.73 67650.36 62781.18 67541.13 62781.18 67434.45 62816.73 67396.36 62854.84 67360.79 62925.95 M 96774 55780.94 96847.65 55816.5 96956.88 55925.71 96956.88 55161.18 M 97703.63 55925.71 97340.41 55161.18 M 97195.63 55925.71 97703.63 55925.71" fill="none" stroke-width="203.2"/><path d="M 86347.29 69834.12 87436.95 69834.12 87436.95 70456.42 M 86555.58 70799.32 86502.24 70903.46 86347.29 71060.94 87436.95 71060.94 M 60452 82179.15 60452 81089.5 61074.29 81089.5 M 61470.54 81920.08 61470.54 81970.87 61521.34 82075.02 61574.68 82128.36 61678.81 82179.15 61887.09 82179.15 61988.7 82128.36 62042.04 82075.02 62092.84 81970.87 62092.84 81866.73 62042.04 81762.6 61937.9 81607.65 61417.2 81089.5 62146.18 81089.5 M 49354 68942.48 49458.14 68995.82 49562.28 69099.96 49613.08 69204.1 49613.08 69412.38 49562.28 69513.98 49458.14 69618.12 49354 69671.46 49196.52 69722.26 48937.44 69722.26 48782.5 69671.46 48678.36 69618.12 48574.22 69513.98 48523.42 69412.38 48523.42 69204.1 48574.22 69099.96 48678.36 68995.82 48782.5 68942.48 M 49613.08 68599.58 48523.42 68599.58 M 49613.08 68599.58 48523.42 67873.14 M 49613.08 67873.14 48523.42 67873.14 M 49613.08 67426.1 49613.08 66854.6 49196.52 67167.02 49196.52 67012.08 49145.72 66907.94 49094.92 66854.6 48937.44 66803.8 48833.3 66803.8 48678.36 66854.6 48574.22 66958.74 48523.42 67113.68 48523.42 67271.16 48574.22 67426.1 48625.02 67479.44 48729.16 67530.24 M 86614 57922.15 86614 57142.37 86664.79 56987.44 86768.93 56883.29 86926.41 56832.5 87030.56 56832.5 87185.5 56883.29 87289.63 56987.44 87340.43 57142.37 87340.43 57922.15 M 87683.34 57713.87 87787.47 57767.21 87944.95 57922.15 87944.95 56832.5 M 75582.77 62997.07 75529.43 63101.21 75425.29 63205.36 75323.7 63256.15 75115.41 63256.15 75011.27 63205.36 74907.13 63101.21 74853.79 62997.07 74803 62839.6 74803 62580.52 74853.79 62425.57 74907.13 62321.44 75011.27 62217.29 75115.41 62166.5 75323.7 62166.5 75425.29 62217.29 75529.43 62321.44 75582.77 62425.57 M 75925.68 63047.87 76029.81 63101.21 76184.75 63256.15 76184.75 62166.5 M 75582.77 67696.08 75529.43 67800.21 75425.29 67904.36 75323.7 67955.15 75115.41 67955.15 75011.27 67904.36 74907.13 67800.21 74853.79 67696.08 74803 67538.6 74803 67279.52 74853.79 67124.58 74907.13 67020.44 75011.27 66916.29 75115.41 66865.5 75323.7 66865.5 75425.29 66916.29 75529.43 67020.44 75582.77 67124.58 M 75976.47 67696.08 75976.47 67746.87 76029.81 67851.02 76080.61 67904.36 76184.75 67955.15 76393.04 67955.15 76497.18 67904.36 76547.97 67851.02 76601.31 67746.87 76601.31 67642.73 76547.97 67538.6 76443.84 67383.65 75925.68 66865.5 76652.11 66865.5 M 75582.77 72395.08 75529.43 72499.21 75425.29 72603.36 75323.7 72654.15 75115.39 72654.15 75011.27 72603.36 74907.13 72499.21 74853.79 72395.08 74803 72237.6 74803 71978.52 74853.79 71823.58 74907.13 71719.44 75011.27 71615.29 75115.39 71564.5 75323.7 71564.5 75425.29 71615.29 75529.43 71719.44 75582.77 71823.58 M 76029.79 72654.15 76601.29 72654.15 76288.9 72237.6 76443.84 72237.6 76547.97 72186.79 76601.29 72136 76652.11 71978.52 76652.11 71874.37 76601.29 71719.44 76497.18 71615.29 76339.7 71564.5 76184.73 71564.5 76029.79 71615.29 75976.47 71666.1 75925.68 71770.23 M 57785 55636.15 57785 54546.5 M 57785 55636.15 58252.36 55636.15 58407.29 55585.36 58460.63 55532.02 58511.43 55427.87 58511.43 55323.73 58460.63 55219.6 58407.29 55168.79 58252.36 55118 57785 55118 M 58148.22 55118 58511.43 54546.5 M 58854.34 55427.87 58958.47 55481.21 59115.95 55636.15 59115.95 54546.5 M 57785 61605.15 57785 60515.5 M 57785 61605.15 58252.36 61605.15 58407.29 61554.36 58460.63 61501.02 58511.43 61396.87 58511.43 61292.73 58460.63 61188.6 58407.29 61137.79 58252.36 61087 57785 61087 M 58148.22 61087 58511.43 60515.5 M 58907.68 61346.07 58907.68 61396.87 58958.47 61501.02 59011.81 61554.36 59115.95 61605.15 59321.7 61605.15 59425.84 61554.36 59479.18 61501.02 59529.97 61396.87 59529.97 61292.73 59479.18 61188.6 59375.04 61033.65 58854.34 60515.5 59583.31 60515.5 M 57785 69225.15 57785 68135.5 M 57785 69225.15 58252.36 69225.15 58407.29 69174.36 58460.63 69121.02 58511.43 69016.87 58511.43 68912.73 58460.63 68808.6 58407.29 68757.79 58252.36 68707 57785 68707 M 58148.22 68707 58511.43 68135.5 M 58958.47 69225.15 59529.97 69225.15 59220.09 68808.6 59375.04 68808.6 59479.18 68757.79 59529.97 68707 59583.31 68549.52 59583.31 68445.37 59529.97 68290.44 59425.84 68186.29 59270.9 68135.5 59115.95 68135.5 58958.47 68186.29 58907.68 68237.1 58854.34 68341.23 M 85841.84 63627 86931.5 63627 M 85841.84 63627 85841.84 64094.36 85892.63 64249.29 85945.97 64302.63 86050.11 64353.44 86154.25 64353.44 86258.4 64302.63 86309.2 64249.29 86360 64094.36 86360 63627 M 86360 63990.21 86931.5 64353.44 M 85841.84 65321.18 85841.84 64800.47 86309.2 64749.68 86258.4 64800.47 86205.06 64957.95 86205.06 65112.89 86258.4 65267.84 86360 65371.97 86517.47 65425.31 86621.61 65425.31 86776.56 65371.97 86880.7 65267.84 86931.5 65112.89 86931.5 64957.95 86880.7 64800.47 86829.9 64749.68 86725.75 64696.34 M 75427.84 79502 76517.5 79502 M 75427.84 79502 75427.84 79969.36 75478.63 80124.29 75531.97 80177.63 75636.11 80228.44 75740.25 80228.44 75844.4 80177.63 75895.2 80124.29 75946 79969.36 75946 79502 M 75946 79865.21 76517.5 80228.44 M 75582.77 81196.18 75478.63 81142.84 75427.84 80987.89 75427.84 80883.76 75478.63 80728.81 75636.11 80624.68 75895.2 80571.34 76154.27 80571.34 76362.56 80624.68 76466.7 80728.81 76517.5 80883.76 76517.5 80937.1 76466.7 81092.04 76362.56 81196.18 76207.61 81246.97 76154.27 81246.97 75999.34 81196.18 75895.2 81092.04 75844.4 80937.1 75844.4 80883.76 75895.2 80728.81 75999.34 80624.68 76154.27 80571.34 M 49281.08 37701.21 49385.22 37754.55 49489.36 37858.7 49540.15 37960.29 49540.15 38168.57 49489.36 38272.71 49385.22 38376.86 49281.08 38430.2 49123.59 38481 48864.52 38481 48709.58 38430.2 48605.43 38376.86 48501.29 38272.71 48450.5 38168.57 48450.5 37960.29 48501.29 37858.7 48605.43 37754.55 48709.58 37701.21 M 49540.15 37358.31 48450.5 37358.31 M 49540.15 37358.31 48450.5 36631.87 M 49540.15 36631.87 48450.5 36631.87 M 49331.88 36288.97 49385.22 36184.84 49540.15 36029.89 48450.5 36029.89" fill="none" stroke-width="152.4"/><path d="M 89170.35 68578.32 89170.35 69340.32 M 89170.35 71108.34 89170.35 70346.34 M 87849.15 71108.34 87849.15 70346.34" fill="none" stroke-width="152"/><path d="M 87849.15 71108.34 88001.57 71260.63 89018 71260.63 89170.35 71108.34" fill="none" stroke-width="152.4"/><path d="M 87849.15 68578.32 87849.15 69340.32" fill="none" stroke-width="152"/><path d="M 89170.35 68578.32 89018 68425.89 88001.57 68425.89 87849.15 68578.32" fill="none" stroke-width="152.4"/><path d="M 62485.67 83836.35 61723.67 83836.35 M 59955.65 83836.35 60717.65 83836.35 M 59955.65 82515.15 60717.65 82515.15" fill="none" stroke-width="152"/><path d="M 59955.65 82515.15 59803.36 82667.57 59803.36 83684 59955.65 83836.35" fill="none" stroke-width="152.4"/><path d="M 62485.67 82515.15 61723.67 82515.15" fill="none" stroke-width="152"/><path d="M 62485.67 83836.35 62638.1 83684 62638.1 82667.57 62485.67 82515.15" fill="none" stroke-width="152.4"/><path d="M 47888.65 66515 47888.65 82074.99 40088.66 82074.99 M 47888.65 66515 40088.66 66515 M 40088.64 66515 40088.64 82074.99 M 41072.99 66515 41072.99 82074.99 M 45924.39 66515 45924.39 82074.99" fill="none" stroke-width="254"/><path d="M 84291.8 50679.6 84291.8 54222.39 89444.19 54222.39 89444.19 50679.6 84291.8 50679.6" fill="none" stroke-width="152.4"/><path d="M 76447.01 61486.77 76447.01 60686.74 M 75337.26 61796.62 76137.23 61796.62 M 75337.26 60376.96 76137.23 60376.96 M 74761.36 61802.44 73961.37 61802.44 M 73651.54 61492.61 73651.54 60692.63 M 74761.36 60382.83 73961.37 60382.83 M 76447.01 66185.77 76447.01 65385.74 M 75337.26 66495.62 76137.23 66495.62 M 75337.26 65075.96 76137.23 65075.96 M 74761.36 66501.44 73961.37 66501.44 M 73651.54 66191.61 73651.54 65391.63 M 74761.36 65081.83 73961.37 65081.83 M 76447.01 70884.77 76447.01 70084.74 M 75337.23 71194.62 76137.23 71194.62 M 75337.23 69774.96 76137.23 69774.96 M 74761.36 71200.44 73961.37 71200.44 M 73651.51 70890.61 73651.51 70090.63 M 74761.36 69780.83 73961.37 69780.83" fill="none" stroke-width="254"/><path d="M 58661.19 50818.38 60096.12 50818.38 60096.12 54083.61 58661.19 54083.61 M 56908.8 50818.38 55473.87 50818.38 55473.87 54083.61 56908.8 54083.61 M 58661.19 56787.38 60096.12 56787.38 60096.12 60052.61 58661.19 60052.61 M 56908.8 56787.38 55473.87 56787.38 55473.87 60052.61 56908.8 60052.61 M 58661.19 64407.38 60096.12 64407.38 60096.12 67672.61 58661.19 67672.61 M 56908.8 64407.38 55473.87 64407.38 55473.87 67672.61 56908.8 67672.61 M 89598.09 64578.2 89598.09 65938.12 87439.9 65938.12 87439.9 64578.2 M 89598.09 62675.79 89598.09 61315.87 87439.9 61315.87 87439.9 62675.79 M 79184.09 80453.2 79184.09 81813.12 77025.9 81813.12 77025.9 80453.2 M 79184.09 78550.79 79184.09 77190.87 77025.9 77190.87 77025.9 78550.79" fill="none" stroke-width="152.4"/><path d="M 41988.05 35887.02 41988.05 35387.02 41238.04 35387.02 41238.04 35887.02 M 47488.04 60886.97 47488.04 61386.97 46788.04 61386.97 46788.04 60886.94 M 39888.08 39536.87 41538.04 39536.87 41538.04 37236.85 39938.04 37236.85 M 39888.08 44536.84 41538.04 44536.84 41538.04 42236.84 39938.04 42236.84 M 39887.9 49536.83 41537.94 49536.83 41537.94 47236.78 39937.81 47236.78 M 39887.95 54536.59 41537.88 54536.59 41537.88 52236.59 39937.99 52236.59 M 39888.1 59536.96 41538.09 59536.96 41538.09 57236.96 39938.12 57236.96 M 46809.07 60886.94 46809.07 35886.92 M 47888.04 60886.84 47888.04 35886.89 39888.05 35886.89 39888.05 60886.84 47888.04 60886.84 M 68345.98 33535.01 70845.95 33535.01 M 68345.96 82034.98 68345.96 33535.01 M 70845.95 82034.98 70845.95 33535.01 M 70845.95 79466.94 68345.98 79466.94 M 68345.98 82034.98 70845.95 82034.98 M 93745.98 33535.01 96245.95 33535.01 M 93745.96 82034.98 93745.96 33535.01 M 96245.95 82034.98 96245.95 33535.01 M 96245.95 79466.94 93745.98 79466.94 M 93745.98 82034.98 96245.95 82034.98 M 73651.49 61492.61 A 309.83 309.83 0 0 0 73961.32 61802.44 M 73961.32 60382.78 A 309.83 309.83 0 0 0 73651.49 60692.64 M 76137.19 61796.63 A 309.83 309.83 0 0 0 76447.01 61486.77 M 76447.01 60686.8 A 309.82 309.82 0 0 0 76137.19 60376.97 M 73651.49 66191.61 A 309.83 309.83 0 0 0 73961.32 66501.44 M 73961.32 65081.78 A 309.83 309.83 0 0 0 73651.49 65391.64 M 76137.19 66495.63 A 309.83 309.83 0 0 0 76447.01 66185.77 M 76447.01 65385.8 A 309.82 309.82 0 0 0 76137.19 65075.97 M 73651.49 70890.61 A 309.83 309.83 0 0 0 73961.32 71200.44 M 73961.32 69780.78 A 309.83 309.83 0 0 0 73651.49 70090.64 M 76137.19 71194.63 A 309.83 309.83 0 0 0 76447.01 70884.77 M 76447.01 70084.8 A 309.82 309.82 0 0 0 76137.19 69774.97" fill="none" stroke-width="254"/><path d="M 84986.11 51180.75 A 150.11 150.11 0 0 1 84685.89 51180.75 150.11 150.11 0 0 1 84986.11 51180.75 M 84119.21 49585.12 A 150.11 150.11 0 0 1 83818.99 49585.12 150.11 150.11 0 0 1 84119.21 49585.12" fill="none" stroke-width="300"/></g><g id="x_cS3EEYis50Jc8lckW2_top_solderpaste"><path d="M 88376.25 69598.53 88082.12 69324.22 88082.12 68820.79 88146.12 68756.78 88882.22 68756.78 88946.22 68820.79 88946.22 69324.22 88652.6 69598.53"/><path d="M 88134.95 70955.4 88070.94 70891.4 88070.94 70388.48 88364.56 70114.16 88641.42 70114.16 88935.05 70388.48 88935.05 70891.4 88871.04 70955.4"/><path d="M 61739.78 83612.22 61465.46 83318.6 61465.46 83042.25 61739.78 82748.12 62243.2 82748.12 62307.21 82812.12 62307.21 83548.22 62243.2 83612.22"/><path d="M 60172.6 83601.05 60108.59 83537.04 60108.59 82800.95 60172.6 82736.94 60676.02 82736.94 60949.84 83030.56 60949.84 83307.42 60676.02 83601.05"/><path d="M 58685.17 53855.11 58585.1 53755.03 58585.1 53028.59 58685.17 52928.52 58920.88 52928.52 59020.96 52828.44 59020.96 52073.55 58920.88 51973.48 58685.17 51973.48 58585.1 51873.4 58585.1 51146.96 58685.17 51046.88 59767.72 51046.88 59867.29 51146.96 59867.29 53755.03 59767.72 53855.11"/><path d="M 55802.27 53855.11 55702.7 53755.03 55702.7 51146.96 55802.27 51046.88 56884.82 51046.88 56984.9 51146.96 56984.9 51873.4 56884.82 51973.48 56649.11 51973.48 56549.03 52073.55 56549.03 52828.44 56649.11 52928.52 56884.82 52928.52 56984.9 53028.59 56984.9 53755.03 56884.82 53855.11"/><path d="M 58685.17 59824.11 58585.1 59724.03 58585.1 58997.59 58685.17 58897.52 58920.88 58897.52 59020.96 58797.44 59020.96 58042.55 58920.88 57942.48 58685.17 57942.48 58585.1 57842.4 58585.1 57115.96 58685.17 57015.88 59767.72 57015.88 59867.29 57115.96 59867.29 59724.03 59767.72 59824.11"/><path d="M 55802.27 59824.11 55702.7 59724.03 55702.7 57115.96 55802.27 57015.88 56884.82 57015.88 56984.9 57115.96 56984.9 57842.4 56884.82 57942.48 56649.11 57942.48 56549.03 58042.55 56549.03 58797.44 56649.11 58897.52 56884.82 58897.52 56984.9 58997.59 56984.9 59724.03 56884.82 59824.11"/><path d="M 58685.17 67444.11 58585.1 67344.03 58585.1 66617.59 58685.17 66517.52 58920.88 66517.52 59020.96 66417.44 59020.96 65662.55 58920.88 65562.48 58685.17 65562.48 58585.1 65462.4 58585.1 64735.96 58685.17 64635.88 59767.72 64635.88 59867.29 64735.96 59867.29 67344.03 59767.72 67444.11"/><path d="M 55802.27 67444.11 55702.7 67344.03 55702.7 64735.96 55802.27 64635.88 56884.82 64635.88 56984.9 64735.96 56984.9 65462.4 56884.82 65562.48 56649.11 65562.48 56549.03 65662.55 56549.03 66417.44 56649.11 66517.52 56884.82 66517.52 56984.9 66617.59 56984.9 67344.03 56884.82 67444.11"/><path d="M 87768.68 65709.29 87668.6 65609.72 87668.6 64601.85 87768.68 64501.77 88129.87 64501.77 88229.94 64601.85 88229.94 64812.67 88330.02 64912.74 88707.97 64912.74 88808.05 64812.67 88808.05 64601.85 88908.12 64501.77 89269.31 64501.77 89369.39 64601.85 89369.39 65609.72 89269.31 65709.29"/><path d="M 87768.68 62752.22 87668.6 62652.14 87668.6 61644.27 87768.68 61544.7 89269.31 61544.7 89369.39 61644.27 89369.39 62652.14 89269.31 62752.22 88908.12 62752.22 88808.05 62652.14 88808.05 62441.32 88707.97 62341.25 88330.02 62341.25 88229.94 62441.32 88229.94 62652.14 88129.87 62752.22"/><path d="M 77354.68 81584.29 77254.6 81484.72 77254.6 80476.85 77354.68 80376.77 77715.87 80376.77 77815.94 80476.85 77815.94 80687.67 77916.02 80787.74 78293.97 80787.74 78394.05 80687.67 78394.05 80476.85 78494.12 80376.77 78855.31 80376.77 78955.39 80476.85 78955.39 81484.72 78855.31 81584.29"/><path d="M 77354.68 78627.22 77254.6 78527.14 77254.6 77519.27 77354.68 77419.7 78855.31 77419.7 78955.39 77519.27 78955.39 78527.14 78855.31 78627.22 78494.12 78627.22 78394.05 78527.14 78394.05 78316.32 78293.97 78216.25 77916.02 78216.25 77815.94 78316.32 77815.94 78527.14 77715.87 78627.22"/><use xlink:href="#bCeiQcmx0BVKXN3fqHAi_pad-10" x="58420" y="34417"/><use xlink:href="#bCeiQcmx0BVKXN3fqHAi_pad-11" x="84592.92" y="49585.11"/><use xlink:href="#bCeiQcmx0BVKXN3fqHAi_pad-11" x="85242.9" y="49585.11"/><use xlink:href="#bCeiQcmx0BVKXN3fqHAi_pad-11" x="85892.89" y="49585.11"/><use xlink:href="#bCeiQcmx0BVKXN3fqHAi_pad-11" x="86543.13" y="49585.11"/><use xlink:href="#bCeiQcmx0BVKXN3fqHAi_pad-11" x="87193.11" y="49585.11"/><use xlink:href="#bCeiQcmx0BVKXN3fqHAi_pad-11" x="87843.1" y="49585.11"/><use xlink:href="#bCeiQcmx0BVKXN3fqHAi_pad-11" x="88493.09" y="49585.11"/><use xlink:href="#bCeiQcmx0BVKXN3fqHAi_pad-11" x="89143.07" y="49585.11"/><use xlink:href="#bCeiQcmx0BVKXN3fqHAi_pad-11" x="84592.92" y="55316.62"/><use xlink:href="#bCeiQcmx0BVKXN3fqHAi_pad-11" x="85242.9" y="55316.62"/><use xlink:href="#bCeiQcmx0BVKXN3fqHAi_pad-11" x="85892.89" y="55316.62"/><use xlink:href="#bCeiQcmx0BVKXN3fqHAi_pad-11" x="86543.13" y="55316.62"/><use xlink:href="#bCeiQcmx0BVKXN3fqHAi_pad-11" x="87193.11" y="55316.62"/><use xlink:href="#bCeiQcmx0BVKXN3fqHAi_pad-11" x="87843.1" y="55316.62"/><use xlink:href="#bCeiQcmx0BVKXN3fqHAi_pad-11" x="88493.09" y="55316.62"/><use xlink:href="#bCeiQcmx0BVKXN3fqHAi_pad-11" x="89143.07" y="55316.62"/><use xlink:href="#bCeiQcmx0BVKXN3fqHAi_pad-12" x="75757.02" y="61087"/><use xlink:href="#bCeiQcmx0BVKXN3fqHAi_pad-12" x="74356.97" y="61087"/><use xlink:href="#bCeiQcmx0BVKXN3fqHAi_pad-12" x="75757.02" y="65786"/><use xlink:href="#bCeiQcmx0BVKXN3fqHAi_pad-12" x="74356.97" y="65786"/><use xlink:href="#bCeiQcmx0BVKXN3fqHAi_pad-12" x="75757.02" y="70485"/><use xlink:href="#bCeiQcmx0BVKXN3fqHAi_pad-12" x="74356.97" y="70485"/></g><g id="x_cS3EEYis50Jc8lckW2_top_copper"><path d="M 94996 65405 101727 65405 M 89143.07 49585.24 89143.07 31750 M 89143.07 55316.75 94924.24 55316.75 94996 55245 M 88493.09 55316.75 88519 55342.66 88519 62148.21 M 78105 78023.21 82423 73705.21 82423 51755.04 84592.15 49585.87 M 69596 80645 73279 78105 78105 78023.21 M 75757.02 70485 79485.38 66756.63 79485.38 31750 M 69596 70485 74356.97 70485 M 75757.02 61087 75757.02 60955.07 79485.38 57226.7 M 75757.02 65786 75757.02 65650.21 79485.38 61921.87 M 75756.99 61087 75756.99 61082.09 M 75756.99 65786 75756.99 65777.18 M 69596 65405 69977 65786 74356.97 65786 M 74356.97 61087 72578.97 62865 69596 62865 M 69596 47625 79484.22 47617.37 M 69596 80645 64643 80645 56261 72263 56261 52451 56851.8 52451 M 56851.8 58420 56261 59010.8 56261 59358.78 M 59226.19 52451 69596 62820.8 69596 62865 M 63671.19 70485 63671.19 70485 69596 70485 M 59226.19 66040 63671.19 70485 M 66167 65405 69596 65405 M 59226.14 58420 66167 65360.85 66167 65405 M 44069 58386.97 44102.02 58420 56343.8 58420 M 44069 43387.01 44149 43307 59182 43307 59226.19 43351.19 59226.19 52451 M 43561 79294.98 50481.2 86215.19 97838.23 86215.19 101727 82328.99 101727 80540.88 M 57192.34 31750 97419.15 31750 101727 36047.68 101727 80645 94996 80645 M 56239.25 31750 57192.34 31750 M 44069 38387.02 44069 34383.97 46700.43 31750 56239.25 31750 M 58420 34417 58425.08 31750 M 61913.89 83185 75900.78 83185 78105 80980.78 M 60514.1 83185 46624.11 69295.01 43888.65 69295.01 M 88519 65105.78 88519 69150.1 M 88519 70549.89 88519 79375 82931 84963 54556.65 84963 43888.65 74295" fill="none" stroke-width="254"/><use xlink:href="#sewVTN4nIjeNXP86CuxT_pad-11" x="58420" y="34417"/><use xlink:href="#sewVTN4nIjeNXP86CuxT_pad-12" x="88519" y="69149.97"/><use xlink:href="#sewVTN4nIjeNXP86CuxT_pad-12" x="88519" y="70550.02"/><use xlink:href="#sewVTN4nIjeNXP86CuxT_pad-13" x="61914.02" y="83184.74"/><use xlink:href="#sewVTN4nIjeNXP86CuxT_pad-13" x="60513.97" y="83184.74"/><use xlink:href="#sewVTN4nIjeNXP86CuxT_pad-14" x="84592.92" y="49585.11"/><use xlink:href="#sewVTN4nIjeNXP86CuxT_pad-14" x="85242.9" y="49585.11"/><use xlink:href="#sewVTN4nIjeNXP86CuxT_pad-14" x="85892.89" y="49585.11"/><use xlink:href="#sewVTN4nIjeNXP86CuxT_pad-14" x="86543.13" y="49585.11"/><use xlink:href="#sewVTN4nIjeNXP86CuxT_pad-14" x="87193.11" y="49585.11"/><use xlink:href="#sewVTN4nIjeNXP86CuxT_pad-14" x="87843.1" y="49585.11"/><use xlink:href="#sewVTN4nIjeNXP86CuxT_pad-14" x="88493.09" y="49585.11"/><use xlink:href="#sewVTN4nIjeNXP86CuxT_pad-14" x="89143.07" y="49585.11"/><use xlink:href="#sewVTN4nIjeNXP86CuxT_pad-14" x="84592.92" y="55316.62"/><use xlink:href="#sewVTN4nIjeNXP86CuxT_pad-14" x="85242.9" y="55316.62"/><use xlink:href="#sewVTN4nIjeNXP86CuxT_pad-14" x="85892.89" y="55316.62"/><use xlink:href="#sewVTN4nIjeNXP86CuxT_pad-14" x="86543.13" y="55316.62"/><use xlink:href="#sewVTN4nIjeNXP86CuxT_pad-14" x="87193.11" y="55316.62"/><use xlink:href="#sewVTN4nIjeNXP86CuxT_pad-14" x="87843.1" y="55316.62"/><use xlink:href="#sewVTN4nIjeNXP86CuxT_pad-14" x="88493.09" y="55316.62"/><use xlink:href="#sewVTN4nIjeNXP86CuxT_pad-14" x="89143.07" y="55316.62"/><use xlink:href="#sewVTN4nIjeNXP86CuxT_pad-15" x="75757.02" y="61087"/><use xlink:href="#sewVTN4nIjeNXP86CuxT_pad-15" x="74356.97" y="61087"/><use xlink:href="#sewVTN4nIjeNXP86CuxT_pad-15" x="75757.02" y="65786"/><use xlink:href="#sewVTN4nIjeNXP86CuxT_pad-15" x="74356.97" y="65786"/><use xlink:href="#sewVTN4nIjeNXP86CuxT_pad-15" x="75757.02" y="70485"/><use xlink:href="#sewVTN4nIjeNXP86CuxT_pad-15" x="74356.97" y="70485"/><use xlink:href="#sewVTN4nIjeNXP86CuxT_pad-16" x="59226.25" y="52451"/><use xlink:href="#sewVTN4nIjeNXP86CuxT_pad-16" x="56343.74" y="52451"/><use xlink:href="#sewVTN4nIjeNXP86CuxT_pad-16" x="59226.25" y="58420"/><use xlink:href="#sewVTN4nIjeNXP86CuxT_pad-16" x="56343.74" y="58420"/><use xlink:href="#sewVTN4nIjeNXP86CuxT_pad-16" x="59226.25" y="66040"/><use xlink:href="#sewVTN4nIjeNXP86CuxT_pad-16" x="56343.74" y="66040"/><use xlink:href="#sewVTN4nIjeNXP86CuxT_pad-17" x="88519" y="65105.76"/><use xlink:href="#sewVTN4nIjeNXP86CuxT_pad-18" x="88519" y="62148.21"/><use xlink:href="#sewVTN4nIjeNXP86CuxT_pad-17" x="78105" y="80980.76"/><use xlink:href="#sewVTN4nIjeNXP86CuxT_pad-18" x="78105" y="78023.21"/><use xlink:href="#sewVTN4nIjeNXP86CuxT_pad-19" x="43888.65" y="69295.01"/><use xlink:href="#sewVTN4nIjeNXP86CuxT_pad-19" x="43888.65" y="74295"/><use xlink:href="#sewVTN4nIjeNXP86CuxT_pad-19" x="43888.65" y="79294.98"/><use xlink:href="#sewVTN4nIjeNXP86CuxT_pad-20" x="43888.15" y="58386.97"/><use xlink:href="#sewVTN4nIjeNXP86CuxT_pad-21" x="43888.15" y="53386.98"/><use xlink:href="#sewVTN4nIjeNXP86CuxT_pad-21" x="43888.15" y="48387"/><use xlink:href="#sewVTN4nIjeNXP86CuxT_pad-21" x="43888.15" y="43387.01"/><use xlink:href="#sewVTN4nIjeNXP86CuxT_pad-21" x="43888.15" y="38387.02"/><use xlink:href="#sewVTN4nIjeNXP86CuxT_pad-22" x="69596" y="34925"/><use xlink:href="#sewVTN4nIjeNXP86CuxT_pad-22" x="69596" y="37465"/><use xlink:href="#sewVTN4nIjeNXP86CuxT_pad-22" x="69596" y="40005"/><use xlink:href="#sewVTN4nIjeNXP86CuxT_pad-22" x="69596" y="42545"/><use xlink:href="#sewVTN4nIjeNXP86CuxT_pad-22" x="69596" y="45085"/><use xlink:href="#sewVTN4nIjeNXP86CuxT_pad-22" x="69596" y="47625"/><use xlink:href="#sewVTN4nIjeNXP86CuxT_pad-22" x="69596" y="50165"/><use xlink:href="#sewVTN4nIjeNXP86CuxT_pad-22" x="69596" y="52705"/><use xlink:href="#sewVTN4nIjeNXP86CuxT_pad-22" x="69596" y="55245"/><use xlink:href="#sewVTN4nIjeNXP86CuxT_pad-22" x="69596" y="57785"/><use xlink:href="#sewVTN4nIjeNXP86CuxT_pad-22" x="69596" y="60325"/><use xlink:href="#sewVTN4nIjeNXP86CuxT_pad-22" x="69596" y="62865"/><use xlink:href="#sewVTN4nIjeNXP86CuxT_pad-22" x="69596" y="65405"/><use xlink:href="#sewVTN4nIjeNXP86CuxT_pad-22" x="69596" y="67945"/><use xlink:href="#sewVTN4nIjeNXP86CuxT_pad-22" x="69596" y="70485"/><use xlink:href="#sewVTN4nIjeNXP86CuxT_pad-22" x="69596" y="73025"/><use xlink:href="#sewVTN4nIjeNXP86CuxT_pad-22" x="69596" y="75565"/><use xlink:href="#sewVTN4nIjeNXP86CuxT_pad-22" x="69596" y="78105"/><use xlink:href="#sewVTN4nIjeNXP86CuxT_pad-23" x="69596" y="80645"/><use xlink:href="#sewVTN4nIjeNXP86CuxT_pad-22" x="94996" y="34925"/><use xlink:href="#sewVTN4nIjeNXP86CuxT_pad-22" x="94996" y="37465"/><use xlink:href="#sewVTN4nIjeNXP86CuxT_pad-22" x="94996" y="40005"/><use xlink:href="#sewVTN4nIjeNXP86CuxT_pad-22" x="94996" y="42545"/><use xlink:href="#sewVTN4nIjeNXP86CuxT_pad-22" x="94996" y="45085"/><use xlink:href="#sewVTN4nIjeNXP86CuxT_pad-22" x="94996" y="47625"/><use xlink:href="#sewVTN4nIjeNXP86CuxT_pad-22" x="94996" y="50165"/><use xlink:href="#sewVTN4nIjeNXP86CuxT_pad-22" x="94996" y="52705"/><use xlink:href="#sewVTN4nIjeNXP86CuxT_pad-22" x="94996" y="55245"/><use xlink:href="#sewVTN4nIjeNXP86CuxT_pad-22" x="94996" y="57785"/><use xlink:href="#sewVTN4nIjeNXP86CuxT_pad-22" x="94996" y="60325"/><use xlink:href="#sewVTN4nIjeNXP86CuxT_pad-22" x="94996" y="62865"/><use xlink:href="#sewVTN4nIjeNXP86CuxT_pad-22" x="94996" y="65405"/><use xlink:href="#sewVTN4nIjeNXP86CuxT_pad-22" x="94996" y="67945"/><use xlink:href="#sewVTN4nIjeNXP86CuxT_pad-22" x="94996" y="70485"/><use xlink:href="#sewVTN4nIjeNXP86CuxT_pad-22" x="94996" y="73025"/><use xlink:href="#sewVTN4nIjeNXP86CuxT_pad-22" x="94996" y="75565"/><use xlink:href="#sewVTN4nIjeNXP86CuxT_pad-22" x="94996" y="78105"/><use xlink:href="#sewVTN4nIjeNXP86CuxT_pad-23" x="94996" y="80645"/><use xlink:href="#sewVTN4nIjeNXP86CuxT_pad-24" x="63671.19" y="70485"/><use xlink:href="#sewVTN4nIjeNXP86CuxT_pad-24" x="66167" y="65405"/></g><g id="x_cS3EEYis50Jc8lckW2_top_drill1"><use xlink:href="#isw5BwHnlM3rAMoXoEB1_pad-1" x="63671" y="70485"/><use xlink:href="#isw5BwHnlM3rAMoXoEB1_pad-1" x="66167" y="65405"/><use xlink:href="#isw5BwHnlM3rAMoXoEB1_pad-2" x="69596" y="34925"/><use xlink:href="#isw5BwHnlM3rAMoXoEB1_pad-2" x="69596" y="37465"/><use xlink:href="#isw5BwHnlM3rAMoXoEB1_pad-2" x="69596" y="40005"/><use xlink:href="#isw5BwHnlM3rAMoXoEB1_pad-2" x="69596" y="42545"/><use xlink:href="#isw5BwHnlM3rAMoXoEB1_pad-2" x="69596" y="45085"/><use xlink:href="#isw5BwHnlM3rAMoXoEB1_pad-2" x="69596" y="47625"/><use xlink:href="#isw5BwHnlM3rAMoXoEB1_pad-2" x="69596" y="50165"/><use xlink:href="#isw5BwHnlM3rAMoXoEB1_pad-2" x="69596" y="52705"/><use xlink:href="#isw5BwHnlM3rAMoXoEB1_pad-2" x="69596" y="55245"/><use xlink:href="#isw5BwHnlM3rAMoXoEB1_pad-2" x="69596" y="57785"/><use xlink:href="#isw5BwHnlM3rAMoXoEB1_pad-2" x="69596" y="60325"/><use xlink:href="#isw5BwHnlM3rAMoXoEB1_pad-2" x="69596" y="62865"/><use xlink:href="#isw5BwHnlM3rAMoXoEB1_pad-2" x="69596" y="65405"/><use xlink:href="#isw5BwHnlM3rAMoXoEB1_pad-2" x="69596" y="67945"/><use xlink:href="#isw5BwHnlM3rAMoXoEB1_pad-2" x="69596" y="70485"/><use xlink:href="#isw5BwHnlM3rAMoXoEB1_pad-2" x="69596" y="73025"/><use xlink:href="#isw5BwHnlM3rAMoXoEB1_pad-2" x="69596" y="75565"/><use xlink:href="#isw5BwHnlM3rAMoXoEB1_pad-2" x="69596" y="78105"/><use xlink:href="#isw5BwHnlM3rAMoXoEB1_pad-2" x="69596" y="80645"/><use xlink:href="#isw5BwHnlM3rAMoXoEB1_pad-2" x="94996" y="34925"/><use xlink:href="#isw5BwHnlM3rAMoXoEB1_pad-2" x="94996" y="37465"/><use xlink:href="#isw5BwHnlM3rAMoXoEB1_pad-2" x="94996" y="40005"/><use xlink:href="#isw5BwHnlM3rAMoXoEB1_pad-2" x="94996" y="42545"/><use xlink:href="#isw5BwHnlM3rAMoXoEB1_pad-2" x="94996" y="45085"/><use xlink:href="#isw5BwHnlM3rAMoXoEB1_pad-2" x="94996" y="47625"/><use xlink:href="#isw5BwHnlM3rAMoXoEB1_pad-2" x="94996" y="50165"/><use xlink:href="#isw5BwHnlM3rAMoXoEB1_pad-2" x="94996" y="52705"/><use xlink:href="#isw5BwHnlM3rAMoXoEB1_pad-2" x="94996" y="55245"/><use xlink:href="#isw5BwHnlM3rAMoXoEB1_pad-2" x="94996" y="57785"/><use xlink:href="#isw5BwHnlM3rAMoXoEB1_pad-2" x="94996" y="60325"/><use xlink:href="#isw5BwHnlM3rAMoXoEB1_pad-2" x="94996" y="62865"/><use xlink:href="#isw5BwHnlM3rAMoXoEB1_pad-2" x="94996" y="65405"/><use xlink:href="#isw5BwHnlM3rAMoXoEB1_pad-2" x="94996" y="67945"/><use xlink:href="#isw5BwHnlM3rAMoXoEB1_pad-2" x="94996" y="70485"/><use xlink:href="#isw5BwHnlM3rAMoXoEB1_pad-2" x="94996" y="73025"/><use xlink:href="#isw5BwHnlM3rAMoXoEB1_pad-2" x="94996" y="75565"/><use xlink:href="#isw5BwHnlM3rAMoXoEB1_pad-2" x="94996" y="78105"/><use xlink:href="#isw5BwHnlM3rAMoXoEB1_pad-2" x="94996" y="80645"/><use xlink:href="#isw5BwHnlM3rAMoXoEB1_pad-3" x="43888" y="58387"/><use xlink:href="#isw5BwHnlM3rAMoXoEB1_pad-3" x="43888" y="53387"/><use xlink:href="#isw5BwHnlM3rAMoXoEB1_pad-3" x="43888" y="48387"/><use xlink:href="#isw5BwHnlM3rAMoXoEB1_pad-3" x="43888" y="43387"/><use xlink:href="#isw5BwHnlM3rAMoXoEB1_pad-3" x="43888" y="38387"/><use xlink:href="#isw5BwHnlM3rAMoXoEB1_pad-4" x="43889" y="69295"/><use xlink:href="#isw5BwHnlM3rAMoXoEB1_pad-4" x="43889" y="74295"/><use xlink:href="#isw5BwHnlM3rAMoXoEB1_pad-4" x="43889" y="79295"/></g><g id="x_cS3EEYis50Jc8lckW2_top_drill2"><use xlink:href="#spCvDqJlmyudYSyu4Vtb_pad-1" x="103000" y="87000"/><use xlink:href="#spCvDqJlmyudYSyu4Vtb_pad-1" x="103000" y="32000"/><use xlink:href="#spCvDqJlmyudYSyu4Vtb_pad-1" x="37000" y="87000"/><use xlink:href="#spCvDqJlmyudYSyu4Vtb_pad-1" x="37000" y="32000"/></g><g id="x_cS3EEYis50Jc8lckW2_top_drill3"><use xlink:href="#yPmdAR-WPUrKBMueeP7U_pad-1" x="63671" y="70485"/><use xlink:href="#yPmdAR-WPUrKBMueeP7U_pad-1" x="66167" y="65405"/></g><clipPath id="x_cS3EEYis50Jc8lckW2_top_outline"><path d="M 33020 91440 33020 28067 106680 28067 106680 91440 33020 91440" fill="none" stroke-width="254"/></clipPath><mask id="x_cS3EEYis50Jc8lckW2_top_mech-mask"><g fill="#000" stroke="#000"><rect x="33020" y="28067" width="73660" height="63373" fill="#fff"/><use xlink:href="#x_cS3EEYis50Jc8lckW2_top_drill1"/><use xlink:href="#x_cS3EEYis50Jc8lckW2_top_drill2"/><use xlink:href="#x_cS3EEYis50Jc8lckW2_top_drill3"/></g></mask><mask id="x_cS3EEYis50Jc8lckW2_top_cf-mask"><g fill="#fff" stroke="#fff"><use xlink:href="#x_cS3EEYis50Jc8lckW2_top_soldermask"/></g></mask><mask id="x_cS3EEYis50Jc8lckW2_top_sm-mask"><g fill="#000" stroke="#000"><rect x="33020" y="28067" width="73660" height="63373" fill="#fff"/><use xlink:href="#x_cS3EEYis50Jc8lckW2_top_soldermask"/></g></mask></defs><g transform="translate(0,119507) scale(1,-1)"><g mask="url(#x_cS3EEYis50Jc8lckW2_top_mech-mask)" clip-path="url(#x_cS3EEYis50Jc8lckW2_top_outline)"><rect x="33020" y="28067" width="73660" height="63373" fill="currentColor" class="x_cS3EEYis50Jc8lckW2_fr4"/><use xlink:href="#x_cS3EEYis50Jc8lckW2_top_copper" fill="currentColor" stroke="currentColor" class="x_cS3EEYis50Jc8lckW2_cu"/><use xlink:href="#x_cS3EEYis50Jc8lckW2_top_copper" fill="currentColor" stroke="currentColor" class="x_cS3EEYis50Jc8lckW2_cf" mask="url(#x_cS3EEYis50Jc8lckW2_top_cf-mask)"/><g mask="url(#x_cS3EEYis50Jc8lckW2_top_sm-mask)"><rect x="33020" y="28067" width="73660" height="63373" fill="currentColor" class="x_cS3EEYis50Jc8lckW2_sm"/><use xlink:href="#x_cS3EEYis50Jc8lckW2_top_silkscreen" fill="currentColor" stroke="currentColor" class="x_cS3EEYis50Jc8lckW2_ss"/></g><use xlink:href="#x_cS3EEYis50Jc8lckW2_top_solderpaste" fill="currentColor" stroke="currentColor" class="x_cS3EEYis50Jc8lckW2_sp"/></g></g></svg>